# MagicaVoxel @ Ephtracy

# group
o 

# material
mtllib Road-BaseHalf-0.mtl
usemtl palette

# normals
vn -1 0 0
vn 1 0 0
vn 0 -1 0
vn 0 1 0
vn 0 0 -1
vn 0 0 1

# texcoords
vt 0.958984 0.5
vt 0.990234 0.5

# verts
v -20 -40 -20
v -20 40 -20
v -20 -40 -18
v -20 40 -18
v 20 -40 -20
v 20 40 -20
v 20 -30 -19
v 20 -10 -19
v 20 10 -19
v 20 30 -19
v 20 -40 -18
v 20 -30 -18
v 20 -10 -18
v 20 10 -18
v 20 30 -18
v 20 40 -18
v -20 -40 -20
v -20 -40 -18
v -19 -40 -19
v -19 -40 -18
v -17 -40 -19
v -17 -40 -18
v 20 -40 -20
v 20 -40 -18
v -20 40 -20
v -20 40 -18
v -19 40 -19
v -19 40 -18
v -17 40 -19
v -17 40 -18
v 20 40 -20
v 20 40 -18
v -20 -40 -20
v 20 -40 -20
v -20 40 -20
v 20 40 -20
v -20 -40 -18
v -19 -40 -18
v -17 -40 -18
v 20 -40 -18
v 19 -30 -18
v 20 -30 -18
v 19 -10 -18
v 20 -10 -18
v 19 10 -18
v 20 10 -18
v 19 30 -18
v 20 30 -18
v -20 40 -18
v -19 40 -18
v -17 40 -18
v 20 40 -18

# faces
f 3/2/1 2/2/1 1/2/1
f 4/2/1 2/2/1 3/2/1
f 5/2/2 6/2/2 7/2/2
f 7/2/2 6/2/2 8/2/2
f 8/2/2 6/2/2 9/2/2
f 9/2/2 6/2/2 10/2/2
f 5/2/2 7/2/2 11/2/2
f 7/1/2 8/1/2 12/1/2
f 11/2/2 7/2/2 12/2/2
f 8/2/2 9/2/2 13/2/2
f 12/1/2 8/1/2 13/1/2
f 9/1/2 10/1/2 14/1/2
f 13/2/2 9/2/2 14/2/2
f 10/2/2 6/2/2 15/2/2
f 14/1/2 10/1/2 15/1/2
f 15/2/2 6/2/2 16/2/2
f 19/2/3 18/2/3 17/2/3
f 20/2/3 18/2/3 19/2/3
f 21/2/3 19/2/3 17/2/3
f 21/1/3 20/1/3 19/1/3
f 22/1/3 20/1/3 21/1/3
f 23/2/3 21/2/3 17/2/3
f 23/2/3 22/2/3 21/2/3
f 24/2/3 22/2/3 23/2/3
f 25/2/4 26/2/4 27/2/4
f 27/2/4 26/2/4 28/2/4
f 25/2/4 27/2/4 29/2/4
f 27/1/4 28/1/4 29/1/4
f 29/1/4 28/1/4 30/1/4
f 25/2/4 29/2/4 31/2/4
f 29/2/4 30/2/4 31/2/4
f 31/2/4 30/2/4 32/2/4
f 35/2/5 34/2/5 33/2/5
f 36/2/5 34/2/5 35/2/5
f 39/2/6 40/2/6 41/2/6
f 41/2/6 40/2/6 42/2/6
f 39/2/6 41/2/6 43/2/6
f 41/1/6 42/1/6 43/1/6
f 43/1/6 42/1/6 44/1/6
f 39/2/6 43/2/6 45/2/6
f 43/2/6 44/2/6 45/2/6
f 45/2/6 44/2/6 46/2/6
f 39/2/6 45/2/6 47/2/6
f 45/1/6 46/1/6 47/1/6
f 47/1/6 46/1/6 48/1/6
f 37/2/6 38/2/6 49/2/6
f 38/1/6 39/1/6 50/1/6
f 49/2/6 38/2/6 50/2/6
f 39/2/6 47/2/6 51/2/6
f 50/1/6 39/1/6 51/1/6
f 47/2/6 48/2/6 51/2/6
f 51/2/6 48/2/6 52/2/6
