# MagicaVoxel @ Ephtracy

# group
o 

# material
mtllib Building1-Base-0.mtl
usemtl palette

# normals
vn -1 0 0
vn 1 0 0
vn 0 -1 0
vn 0 1 0
vn 0 0 -1
vn 0 0 1

# texcoords
vt 0.275391 0.5
vt 0.310547 0.5
vt 0.427734 0.5
vt 0.982422 0.5

# verts
v -50 -50 -40
v -50 -29 -40
v -50 -50 -28
v -50 -29 -28
v -44 -44 -28
v -44 -34 -28
v -44 -44 40
v -44 -34 40
v -40 -29 -40
v -40 40 -40
v -40 -29 -28
v -40 40 -28
v -40 -24 -13
v -40 22 -13
v -40 -24 -12
v -40 22 -12
v -39 -34 -28
v -39 40 -28
v -39 -24 -13
v -39 22 -13
v -39 -24 -12
v -39 -22 -12
v -39 -2 -12
v -39 1 -12
v -39 20 -12
v -39 22 -12
v -39 -22 17
v -39 -2 17
v -39 1 17
v -39 20 17
v -39 -24 19
v -39 22 19
v -39 -34 40
v -39 40 40
v -38 -3 -12
v -38 -2 -12
v -38 1 -12
v -38 2 -12
v -38 -3 17
v -38 -2 17
v -38 1 17
v -38 2 17
v -35 2 -12
v -35 20 -12
v -35 2 17
v -35 20 17
v -34 -22 -12
v -34 -3 -12
v -34 -22 17
v -34 -3 17
v -34 -44 -28
v -34 -39 -28
v -34 -44 40
v -34 -39 40
v -29 -50 -40
v -29 -40 -40
v -29 -50 -28
v -29 -40 -28
v 40 -40 -40
v 40 -39 -40
v 40 40 -40
v 40 -40 -28
v 40 -39 -28
v 40 -39 40
v 40 40 40
v -50 -50 -40
v -50 -50 -28
v -29 -50 -40
v -29 -50 -28
v -44 -44 -28
v -44 -44 40
v -34 -44 -28
v -34 -44 40
v -29 -40 -40
v -29 -40 -28
v 40 -40 -40
v 40 -40 -28
v -34 -39 -28
v -34 -39 40
v 40 -39 -28
v 40 -39 40
v -40 -24 -13
v -40 -24 -12
v -39 -24 -13
v -39 -24 -12
v -38 -3 -12
v -38 -3 17
v -34 -3 -12
v -34 -3 17
v -39 -2 -12
v -39 -2 17
v -38 -2 -12
v -38 -2 17
v -39 20 -12
v -39 20 17
v -35 20 -12
v -35 20 17
v -44 -34 -28
v -44 -34 40
v -39 -34 -28
v -39 -34 40
v -50 -29 -40
v -50 -29 -28
v -40 -29 -40
v -40 -29 -28
v -39 -22 -12
v -39 -22 17
v -34 -22 -12
v -34 -22 17
v -39 1 -12
v -39 1 17
v -38 1 -12
v -38 1 17
v -38 2 -12
v -38 2 17
v -35 2 -12
v -35 2 17
v -40 22 -13
v -40 22 -12
v -39 22 -13
v -39 22 -12
v -40 40 -40
v -40 40 -28
v -39 40 -40
v -39 40 -28
v -39 40 40
v 40 40 -40
v 40 40 40
v -50 -50 -40
v -29 -50 -40
v -29 -40 -40
v 40 -40 -40
v -39 -39 -40
v 40 -39 -40
v -50 -29 -40
v -40 -29 -40
v -40 40 -40
v -39 40 -40
v 40 40 -40
v -40 -24 -13
v -39 -24 -13
v -40 22 -13
v -39 22 -13
v -39 -22 17
v -34 -22 17
v -38 -3 17
v -34 -3 17
v -39 -2 17
v -38 -2 17
v -39 1 17
v -38 1 17
v -38 2 17
v -35 2 17
v -39 20 17
v -35 20 17
v -50 -50 -28
v -29 -50 -28
v -44 -44 -28
v -34 -44 -28
v -29 -40 -28
v 40 -40 -28
v -34 -39 -28
v 40 -39 -28
v -44 -34 -28
v -39 -34 -28
v -50 -29 -28
v -40 -29 -28
v -40 40 -28
v -39 40 -28
v -40 -24 -12
v -39 -24 -12
v -39 -22 -12
v -34 -22 -12
v -38 -3 -12
v -34 -3 -12
v -39 -2 -12
v -38 -2 -12
v -39 1 -12
v -38 1 -12
v -38 2 -12
v -35 2 -12
v -39 20 -12
v -35 20 -12
v -40 22 -12
v -39 22 -12
v -44 -44 40
v -34 -44 40
v -34 -39 40
v 40 -39 40
v -44 -34 40
v -39 -34 40
v -39 40 40
v 40 40 40

# faces
f 3/4/1 2/4/1 1/4/1
f 4/4/1 2/4/1 3/4/1
f 7/1/1 6/1/1 5/1/1
f 8/1/1 6/1/1 7/1/1
f 11/4/1 10/4/1 9/4/1
f 12/4/1 10/4/1 11/4/1
f 15/2/1 14/2/1 13/2/1
f 16/2/1 14/2/1 15/2/1
f 19/1/1 18/1/1 17/1/1
f 20/1/1 18/1/1 19/1/1
f 21/1/1 19/1/1 17/1/1
f 26/1/1 18/1/1 20/1/1
f 27/2/1 22/2/1 21/2/1
f 28/2/1 24/2/1 23/2/1
f 29/2/1 24/2/1 28/2/1
f 30/2/1 26/2/1 25/2/1
f 31/2/1 27/2/1 21/2/1
f 31/2/1 30/2/1 29/2/1
f 31/1/1 21/1/1 17/1/1
f 31/2/1 29/2/1 28/2/1
f 31/2/1 28/2/1 27/2/1
f 32/2/1 26/2/1 30/2/1
f 32/2/1 30/2/1 31/2/1
f 32/1/1 18/1/1 26/1/1
f 33/1/1 31/1/1 17/1/1
f 33/1/1 32/1/1 31/1/1
f 34/1/1 18/1/1 32/1/1
f 34/1/1 32/1/1 33/1/1
f 39/2/1 36/2/1 35/2/1
f 40/2/1 36/2/1 39/2/1
f 41/2/1 38/2/1 37/2/1
f 42/2/1 38/2/1 41/2/1
f 45/3/1 44/3/1 43/3/1
f 46/3/1 44/3/1 45/3/1
f 49/3/1 48/3/1 47/3/1
f 50/3/1 48/3/1 49/3/1
f 51/1/2 52/1/2 53/1/2
f 53/1/2 52/1/2 54/1/2
f 55/4/2 56/4/2 57/4/2
f 57/4/2 56/4/2 58/4/2
f 59/4/2 60/4/2 62/4/2
f 60/1/2 61/1/2 63/1/2
f 62/4/2 60/4/2 63/4/2
f 63/1/2 61/1/2 64/1/2
f 64/1/2 61/1/2 65/1/2
f 68/4/3 67/4/3 66/4/3
f 69/4/3 67/4/3 68/4/3
f 72/1/3 71/1/3 70/1/3
f 73/1/3 71/1/3 72/1/3
f 76/4/3 75/4/3 74/4/3
f 77/4/3 75/4/3 76/4/3
f 80/1/3 79/1/3 78/1/3
f 81/1/3 79/1/3 80/1/3
f 84/2/3 83/2/3 82/2/3
f 85/2/3 83/2/3 84/2/3
f 88/2/3 87/2/3 86/2/3
f 89/2/3 87/2/3 88/2/3
f 92/2/3 91/2/3 90/2/3
f 93/2/3 91/2/3 92/2/3
f 96/2/3 95/2/3 94/2/3
f 97/2/3 95/2/3 96/2/3
f 98/1/4 99/1/4 100/1/4
f 100/1/4 99/1/4 101/1/4
f 102/4/4 103/4/4 104/4/4
f 104/4/4 103/4/4 105/4/4
f 106/2/4 107/2/4 108/2/4
f 108/2/4 107/2/4 109/2/4
f 110/2/4 111/2/4 112/2/4
f 112/2/4 111/2/4 113/2/4
f 114/2/4 115/2/4 116/2/4
f 116/2/4 115/2/4 117/2/4
f 118/2/4 119/2/4 120/2/4
f 120/2/4 119/2/4 121/2/4
f 122/4/4 123/4/4 124/4/4
f 124/4/4 123/4/4 125/4/4
f 124/1/4 125/1/4 127/1/4
f 125/1/4 126/1/4 127/1/4
f 127/1/4 126/1/4 128/1/4
f 131/4/5 130/4/5 129/4/5
f 133/4/5 131/4/5 129/4/5
f 133/4/5 132/4/5 131/4/5
f 134/4/5 132/4/5 133/4/5
f 135/4/5 133/4/5 129/4/5
f 136/4/5 133/4/5 135/4/5
f 137/4/5 133/4/5 136/4/5
f 138/1/5 134/1/5 133/1/5
f 138/4/5 133/4/5 137/4/5
f 139/1/5 134/1/5 138/1/5
f 142/2/5 141/2/5 140/2/5
f 143/2/5 141/2/5 142/2/5
f 146/2/5 145/2/5 144/2/5
f 147/2/5 145/2/5 146/2/5
f 148/2/5 146/2/5 144/2/5
f 149/2/5 146/2/5 148/2/5
f 152/2/5 151/2/5 150/2/5
f 154/2/5 152/2/5 150/2/5
f 154/2/5 153/2/5 152/2/5
f 155/2/5 153/2/5 154/2/5
f 156/4/6 157/4/6 158/4/6
f 158/4/6 157/4/6 159/4/6
f 159/4/6 157/4/6 160/4/6
f 159/4/6 160/4/6 162/4/6
f 160/4/6 161/4/6 162/4/6
f 162/4/6 161/4/6 163/4/6
f 156/4/6 158/4/6 164/4/6
f 156/4/6 164/4/6 166/4/6
f 164/4/6 165/4/6 166/4/6
f 166/4/6 165/4/6 167/4/6
f 167/4/6 165/4/6 168/4/6
f 168/4/6 165/4/6 169/4/6
f 170/2/6 171/2/6 172/2/6
f 172/2/6 173/2/6 174/2/6
f 174/2/6 173/2/6 175/2/6
f 170/2/6 172/2/6 176/2/6
f 172/2/6 174/2/6 176/2/6
f 176/2/6 174/2/6 177/2/6
f 170/2/6 176/2/6 178/2/6
f 178/2/6 179/2/6 180/2/6
f 178/2/6 180/2/6 182/2/6
f 180/2/6 181/2/6 182/2/6
f 170/2/6 178/2/6 182/2/6
f 182/2/6 181/2/6 183/2/6
f 170/2/6 182/2/6 184/2/6
f 184/2/6 182/2/6 185/2/6
f 186/1/6 187/1/6 188/1/6
f 186/1/6 188/1/6 190/1/6
f 188/1/6 189/1/6 190/1/6
f 190/1/6 189/1/6 191/1/6
f 191/1/6 189/1/6 192/1/6
f 192/1/6 189/1/6 193/1/6
