# MagicaVoxel @ Ephtracy

# group
o 

# material
mtllib Building1Var1-Entrance1-0.mtl
usemtl palette

# normals
vn -1 0 0
vn 1 0 0
vn 0 -1 0
vn 0 1 0
vn 0 0 -1
vn 0 0 1

# texcoords
vt 0.427734 0.5
vt 0.958984 0.5
vt 0.966797 0.5
vt 0.982422 0.5

# verts
v -50 -50 -40
v -50 -29 -40
v -50 50 -40
v -50 -29 -35
v -50 50 -35
v -50 -50 -28
v -50 -29 -28
v -44 -44 -28
v -44 -34 -28
v -44 -44 40
v -44 -34 40
v 18 -15 -13
v 18 18 -13
v 18 -15 -11
v 18 18 -11
v 24 -40 -35
v 24 40 -35
v 24 -40 -28
v 24 40 -28
v 25 -39 -28
v 25 40 -28
v 25 -15 -13
v 25 18 -13
v 25 -15 -11
v 25 -11 -11
v 25 14 -11
v 25 18 -11
v 25 -11 15
v 25 14 15
v 25 -39 40
v 25 40 40
v 27 -11 -11
v 27 14 -11
v 27 -11 15
v 27 14 15
v -34 -44 -28
v -34 -34 -28
v -34 -44 40
v -34 -34 40
v -29 -50 -35
v -29 -29 -35
v -29 -50 -28
v -29 -29 -28
v 40 -40 -35
v 40 -39 -35
v 40 40 -35
v 40 -40 -28
v 40 -39 -28
v 40 -39 40
v 40 40 40
v 50 -50 -40
v 50 50 -40
v 50 -50 -35
v 50 50 -35
v -50 -50 -40
v -50 -50 -28
v -29 -50 -40
v -29 -50 -35
v -29 -50 -28
v 50 -50 -40
v 50 -50 -35
v -44 -44 -28
v -44 -44 40
v -34 -44 -28
v -34 -44 40
v 24 -40 -35
v 24 -40 -28
v 40 -40 -35
v 40 -40 -28
v 25 -39 -28
v 25 -39 40
v 40 -39 -28
v 40 -39 40
v 18 -15 -13
v 18 -15 -11
v 25 -15 -13
v 25 -15 -11
v 25 14 -11
v 25 14 15
v 27 14 -11
v 27 14 15
v -44 -34 -28
v -44 -34 40
v -34 -34 -28
v -34 -34 40
v -50 -29 -35
v -50 -29 -28
v -29 -29 -35
v -29 -29 -28
v 25 -11 -11
v 25 -11 15
v 27 -11 -11
v 27 -11 15
v 18 18 -13
v 18 18 -11
v 25 18 -13
v 25 18 -11
v 24 40 -35
v 24 40 -28
v 25 40 -35
v 25 40 -28
v 25 40 40
v 40 40 -35
v 40 40 40
v -50 50 -40
v -50 50 -35
v 50 50 -40
v 50 50 -35
v -50 -50 -40
v -29 -50 -40
v 50 -50 -40
v 24 -40 -40
v 40 -40 -40
v 25 -39 -40
v 40 -39 -40
v -50 -29 -40
v -29 -29 -40
v 24 40 -40
v 25 40 -40
v 40 40 -40
v -50 50 -40
v 50 50 -40
v 18 -15 -13
v 25 -15 -13
v 18 18 -13
v 25 18 -13
v 25 -11 15
v 27 -11 15
v 25 14 15
v 27 14 15
v -29 -50 -35
v 50 -50 -35
v 24 -40 -35
v 40 -40 -35
v 40 -39 -35
v -50 -29 -35
v -29 -29 -35
v 24 40 -35
v 25 40 -35
v 40 40 -35
v -50 50 -35
v 50 50 -35
v -50 -50 -28
v -29 -50 -28
v -44 -44 -28
v -34 -44 -28
v 24 -40 -28
v 40 -40 -28
v 25 -39 -28
v 40 -39 -28
v -44 -34 -28
v -34 -34 -28
v -50 -29 -28
v -29 -29 -28
v 24 40 -28
v 25 40 -28
v 18 -15 -11
v 25 -15 -11
v 25 -11 -11
v 27 -11 -11
v 25 14 -11
v 27 14 -11
v 18 18 -11
v 25 18 -11
v -44 -44 40
v -34 -44 40
v 25 -39 40
v 40 -39 40
v -44 -34 40
v -34 -34 40
v 25 40 40
v 40 40 40

# faces
f 4/4/1 2/4/1 1/4/1
f 4/3/1 3/3/1 2/3/1
f 5/3/1 3/3/1 4/3/1
f 6/4/1 4/4/1 1/4/1
f 7/4/1 4/4/1 6/4/1
f 10/2/1 9/2/1 8/2/1
f 11/2/1 9/2/1 10/2/1
f 14/2/1 13/2/1 12/2/1
f 15/2/1 13/2/1 14/2/1
f 18/4/1 17/4/1 16/4/1
f 19/4/1 17/4/1 18/4/1
f 22/2/1 21/2/1 20/2/1
f 23/2/1 21/2/1 22/2/1
f 24/2/1 22/2/1 20/2/1
f 27/2/1 21/2/1 23/2/1
f 28/2/1 25/2/1 24/2/1
f 29/2/1 27/2/1 26/2/1
f 30/2/1 28/2/1 24/2/1
f 30/2/1 29/2/1 28/2/1
f 30/2/1 24/2/1 20/2/1
f 31/2/1 27/2/1 29/2/1
f 31/2/1 29/2/1 30/2/1
f 31/2/1 21/2/1 27/2/1
f 34/1/1 33/1/1 32/1/1
f 35/1/1 33/1/1 34/1/1
f 36/2/2 37/2/2 38/2/2
f 38/2/2 37/2/2 39/2/2
f 40/4/2 41/4/2 42/4/2
f 42/4/2 41/4/2 43/4/2
f 44/4/2 45/4/2 47/4/2
f 45/2/2 46/2/2 48/2/2
f 47/4/2 45/4/2 48/4/2
f 48/2/2 46/2/2 49/2/2
f 49/2/2 46/2/2 50/2/2
f 51/3/2 52/3/2 53/3/2
f 53/3/2 52/3/2 54/3/2
f 57/4/3 56/4/3 55/4/3
f 58/4/3 56/4/3 57/4/3
f 59/4/3 56/4/3 58/4/3
f 60/3/3 58/3/3 57/3/3
f 61/3/3 58/3/3 60/3/3
f 64/2/3 63/2/3 62/2/3
f 65/2/3 63/2/3 64/2/3
f 68/4/3 67/4/3 66/4/3
f 69/4/3 67/4/3 68/4/3
f 72/2/3 71/2/3 70/2/3
f 73/2/3 71/2/3 72/2/3
f 76/2/3 75/2/3 74/2/3
f 77/2/3 75/2/3 76/2/3
f 80/2/3 79/2/3 78/2/3
f 81/2/3 79/2/3 80/2/3
f 82/2/4 83/2/4 84/2/4
f 84/2/4 83/2/4 85/2/4
f 86/4/4 87/4/4 88/4/4
f 88/4/4 87/4/4 89/4/4
f 90/2/4 91/2/4 92/2/4
f 92/2/4 91/2/4 93/2/4
f 94/2/4 95/2/4 96/2/4
f 96/2/4 95/2/4 97/2/4
f 98/4/4 99/4/4 100/4/4
f 100/4/4 99/4/4 101/4/4
f 100/2/4 101/2/4 103/2/4
f 101/2/4 102/2/4 103/2/4
f 103/2/4 102/2/4 104/2/4
f 105/3/4 106/3/4 107/3/4
f 107/3/4 106/3/4 108/3/4
f 112/3/5 111/3/5 110/3/5
f 113/3/5 111/3/5 112/3/5
f 114/4/5 113/4/5 112/4/5
f 115/3/5 111/3/5 113/3/5
f 115/4/5 113/4/5 114/4/5
f 116/4/5 110/4/5 109/4/5
f 117/3/5 112/3/5 110/3/5
f 117/4/5 110/4/5 116/4/5
f 118/4/5 114/4/5 112/4/5
f 118/3/5 112/3/5 117/3/5
f 118/3/5 117/3/5 116/3/5
f 119/2/5 115/2/5 114/2/5
f 119/4/5 114/4/5 118/4/5
f 120/3/5 111/3/5 115/3/5
f 120/2/5 115/2/5 119/2/5
f 121/3/5 119/3/5 118/3/5
f 121/3/5 118/3/5 116/3/5
f 121/3/5 120/3/5 119/3/5
f 122/3/5 111/3/5 120/3/5
f 122/3/5 120/3/5 121/3/5
f 125/2/5 124/2/5 123/2/5
f 126/2/5 124/2/5 125/2/5
f 129/2/5 128/2/5 127/2/5
f 130/2/5 128/2/5 129/2/5
f 131/3/6 132/3/6 133/3/6
f 133/3/6 132/3/6 134/3/6
f 134/3/6 132/3/6 135/3/6
f 131/3/6 133/3/6 137/3/6
f 137/3/6 133/3/6 138/3/6
f 136/3/6 137/3/6 138/3/6
f 135/3/6 132/3/6 140/3/6
f 138/3/6 139/3/6 141/3/6
f 139/3/6 140/3/6 141/3/6
f 136/3/6 138/3/6 141/3/6
f 140/3/6 132/3/6 142/3/6
f 141/3/6 140/3/6 142/3/6
f 143/4/6 144/4/6 145/4/6
f 145/4/6 144/4/6 146/4/6
f 147/4/6 148/4/6 149/4/6
f 149/4/6 148/4/6 150/4/6
f 143/4/6 145/4/6 151/4/6
f 146/4/6 144/4/6 152/4/6
f 143/4/6 151/4/6 153/4/6
f 151/4/6 152/4/6 153/4/6
f 152/4/6 144/4/6 154/4/6
f 153/4/6 152/4/6 154/4/6
f 147/4/6 149/4/6 155/4/6
f 155/4/6 149/4/6 156/4/6
f 157/2/6 158/2/6 159/2/6
f 157/2/6 159/2/6 161/2/6
f 159/2/6 160/2/6 161/2/6
f 161/2/6 160/2/6 162/2/6
f 157/2/6 161/2/6 163/2/6
f 163/2/6 161/2/6 164/2/6
f 165/2/6 166/2/6 169/2/6
f 169/2/6 166/2/6 170/2/6
f 167/2/6 168/2/6 171/2/6
f 171/2/6 168/2/6 172/2/6
