# MagicaVoxel @ Ephtracy

# group
o 

# material
mtllib Building1Var1-Entrance2-0.mtl
usemtl palette

# normals
vn -1 0 0
vn 1 0 0
vn 0 -1 0
vn 0 1 0
vn 0 0 -1
vn 0 0 1

# texcoords
vt 0.427734 0.5
vt 0.779297 0.5
vt 0.923828 0.5
vt 0.958984 0.5
vt 0.966797 0.5
vt 0.982422 0.5

# verts
v -50 -50 -40
v -50 -29 -40
v -50 50 -40
v -50 -29 -35
v -50 50 -35
v -50 -50 -28
v -50 -29 -28
v -44 -44 -28
v -44 -34 -28
v -44 -44 40
v -44 -34 40
v 14 -16 -35
v 14 21 -35
v 14 -16 -28
v 14 21 -28
v 24 -40 -35
v 24 -16 -35
v 24 21 -35
v 24 40 -35
v 24 -40 -28
v 24 -16 -28
v 24 21 -28
v 24 40 -28
v 24 20 0
v 24 34 0
v 24 24 3
v 24 26 3
v 24 28 3
v 24 30 3
v 24 31 3
v 24 32 3
v 24 27 4
v 24 28 4
v 24 29 4
v 24 22 5
v 24 24 5
v 24 29 5
v 24 30 5
v 24 22 6
v 24 26 6
v 24 27 6
v 24 28 6
v 24 31 6
v 24 32 6
v 24 24 8
v 24 30 8
v 24 24 9
v 24 25 9
v 24 26 9
v 24 28 9
v 24 29 9
v 24 30 9
v 24 25 10
v 24 26 10
v 24 27 10
v 24 28 10
v 24 29 10
v 24 26 11
v 24 27 11
v 24 28 11
v 24 27 12
v 24 28 12
v 24 20 14
v 24 34 14
v 25 -39 -28
v 25 -11 -28
v 25 14 -28
v 25 40 -28
v 25 20 0
v 25 34 0
v 25 20 14
v 25 34 14
v 25 -11 15
v 25 14 15
v 25 -39 40
v 25 40 40
v 27 -11 -28
v 27 14 -28
v 27 10 -9
v 27 12 -9
v 27 -4 -6
v 27 5 -6
v 27 10 -2
v 27 12 -2
v 27 -4 7
v 27 5 7
v 27 -11 15
v 27 14 15
v 28 10 -9
v 28 12 -9
v 28 10 -8
v 28 12 -8
v 28 10 -2
v 28 12 -2
v -34 -44 -28
v -34 -34 -28
v -34 -44 40
v -34 -34 40
v -29 -50 -35
v -29 -29 -35
v -29 -50 -28
v -29 -29 -28
v 40 -40 -35
v 40 -39 -35
v 40 40 -35
v 40 -40 -28
v 40 -39 -28
v 40 -39 40
v 40 40 40
v 50 -50 -40
v 50 50 -40
v 50 -50 -35
v 50 50 -35
v -50 -50 -40
v -50 -50 -28
v -29 -50 -40
v -29 -50 -35
v -29 -50 -28
v 50 -50 -40
v 50 -50 -35
v -44 -44 -28
v -44 -44 40
v -34 -44 -28
v -34 -44 40
v 24 -40 -35
v 24 -40 -28
v 40 -40 -35
v 40 -40 -28
v 25 -39 -28
v 25 -39 40
v 40 -39 -28
v 40 -39 40
v 14 -16 -35
v 14 -16 -28
v 24 -16 -35
v 24 -16 -28
v 27 12 -9
v 27 12 -2
v 28 12 -9
v 28 12 -8
v 28 12 -2
v 25 14 -28
v 25 14 15
v 27 14 -28
v 27 14 15
v 24 20 0
v 24 20 14
v 25 20 0
v 25 20 14
v -44 -34 -28
v -44 -34 40
v -34 -34 -28
v -34 -34 40
v -50 -29 -35
v -50 -29 -28
v -29 -29 -35
v -29 -29 -28
v 25 -11 -28
v 25 -11 15
v 27 -11 -28
v 27 -11 15
v 27 10 -9
v 27 10 -2
v 28 10 -9
v 28 10 -8
v 28 10 -2
v 14 21 -35
v 14 21 -28
v 24 21 -35
v 24 21 -28
v 24 34 0
v 24 34 14
v 25 34 0
v 25 34 14
v 24 40 -35
v 24 40 -28
v 25 40 -35
v 25 40 -28
v 25 40 40
v 40 40 -35
v 40 40 40
v -50 50 -40
v -50 50 -35
v 50 50 -40
v 50 50 -35
v -50 -50 -40
v -29 -50 -40
v 50 -50 -40
v 24 -40 -40
v 40 -40 -40
v 25 -39 -40
v 40 -39 -40
v -50 -29 -40
v -29 -29 -40
v 14 -16 -40
v 24 -16 -40
v 14 21 -40
v 24 21 -40
v 24 40 -40
v 25 40 -40
v 40 40 -40
v -50 50 -40
v 50 50 -40
v 27 10 -2
v 28 10 -2
v 27 12 -2
v 28 12 -2
v 24 20 0
v 25 20 0
v 24 34 0
v 25 34 0
v 25 -11 15
v 27 -11 15
v 25 14 15
v 27 14 15
v -29 -50 -35
v 50 -50 -35
v 24 -40 -35
v 40 -40 -35
v 40 -39 -35
v -50 -29 -35
v -29 -29 -35
v 14 -16 -35
v 24 -16 -35
v 14 21 -35
v 24 21 -35
v 24 40 -35
v 25 40 -35
v 40 40 -35
v -50 50 -35
v 50 50 -35
v -50 -50 -28
v -29 -50 -28
v -44 -44 -28
v -34 -44 -28
v 24 -40 -28
v 40 -40 -28
v 25 -39 -28
v 40 -39 -28
v -44 -34 -28
v -34 -34 -28
v -50 -29 -28
v -29 -29 -28
v 14 -16 -28
v 24 -16 -28
v 25 -11 -28
v 27 -11 -28
v 25 14 -28
v 27 14 -28
v 14 21 -28
v 24 21 -28
v 24 40 -28
v 25 40 -28
v 27 10 -9
v 28 10 -9
v 27 12 -9
v 28 12 -9
v 24 20 14
v 25 20 14
v 24 34 14
v 25 34 14
v -44 -44 40
v -34 -44 40
v 25 -39 40
v 40 -39 40
v -44 -34 40
v -34 -34 40
v 25 40 40
v 40 40 40

# faces
f 4/6/1 2/6/1 1/6/1
f 4/5/1 3/5/1 2/5/1
f 5/5/1 3/5/1 4/5/1
f 6/6/1 4/6/1 1/6/1
f 7/6/1 4/6/1 6/6/1
f 10/4/1 9/4/1 8/4/1
f 11/4/1 9/4/1 10/4/1
f 14/6/1 13/6/1 12/6/1
f 15/6/1 13/6/1 14/6/1
f 20/6/1 17/6/1 16/6/1
f 21/6/1 17/6/1 20/6/1
f 22/6/1 19/6/1 18/6/1
f 23/6/1 19/6/1 22/6/1
f 26/2/1 25/2/1 24/2/1
f 27/2/1 25/2/1 26/2/1
f 28/2/1 25/2/1 27/2/1
f 29/2/1 25/2/1 28/2/1
f 30/2/1 25/2/1 29/2/1
f 31/2/1 25/2/1 30/2/1
f 32/2/1 28/2/1 27/2/1
f 33/4/1 29/4/1 28/4/1
f 33/2/1 28/2/1 32/2/1
f 34/4/1 29/4/1 33/4/1
f 35/2/1 26/2/1 24/2/1
f 36/4/1 27/4/1 26/4/1
f 36/2/1 26/2/1 35/2/1
f 37/4/1 29/4/1 34/4/1
f 37/2/1 34/2/1 33/2/1
f 38/2/1 30/2/1 29/2/1
f 38/4/1 29/4/1 37/4/1
f 39/2/1 35/2/1 24/2/1
f 39/4/1 36/4/1 35/4/1
f 40/4/1 27/4/1 36/4/1
f 40/4/1 36/4/1 39/4/1
f 40/2/1 32/2/1 27/2/1
f 41/4/1 33/4/1 32/4/1
f 41/2/1 32/2/1 40/2/1
f 42/2/1 38/2/1 37/2/1
f 42/4/1 33/4/1 41/4/1
f 42/2/1 37/2/1 33/2/1
f 43/2/1 30/2/1 38/2/1
f 43/2/1 38/2/1 42/2/1
f 43/4/1 31/4/1 30/4/1
f 44/2/1 25/2/1 31/2/1
f 44/4/1 31/4/1 43/4/1
f 45/2/1 42/2/1 41/2/1
f 45/2/1 43/2/1 42/2/1
f 45/2/1 44/2/1 43/2/1
f 45/2/1 40/2/1 39/2/1
f 45/2/1 41/2/1 40/2/1
f 46/2/1 44/2/1 45/2/1
f 47/2/1 45/2/1 39/2/1
f 47/4/1 46/4/1 45/4/1
f 48/4/1 46/4/1 47/4/1
f 49/4/1 46/4/1 48/4/1
f 50/4/1 46/4/1 49/4/1
f 51/4/1 46/4/1 50/4/1
f 52/2/1 44/2/1 46/2/1
f 52/4/1 46/4/1 51/4/1
f 53/2/1 48/2/1 47/2/1
f 53/4/1 49/4/1 48/4/1
f 54/2/1 50/2/1 49/2/1
f 54/4/1 49/4/1 53/4/1
f 55/2/1 50/2/1 54/2/1
f 56/4/1 51/4/1 50/4/1
f 56/2/1 50/2/1 55/2/1
f 57/2/1 52/2/1 51/2/1
f 57/4/1 51/4/1 56/4/1
f 58/4/1 55/4/1 54/4/1
f 58/2/1 54/2/1 53/2/1
f 59/2/1 56/2/1 55/2/1
f 59/4/1 55/4/1 58/4/1
f 59/2/1 57/2/1 56/2/1
f 60/2/1 57/2/1 59/2/1
f 61/2/1 59/2/1 58/2/1
f 61/4/1 60/4/1 59/4/1
f 62/2/1 57/2/1 60/2/1
f 62/4/1 60/4/1 61/4/1
f 63/2/1 39/2/1 24/2/1
f 63/2/1 47/2/1 39/2/1
f 63/2/1 62/2/1 61/2/1
f 63/2/1 61/2/1 58/2/1
f 63/2/1 53/2/1 47/2/1
f 63/2/1 58/2/1 53/2/1
f 64/2/1 57/2/1 62/2/1
f 64/2/1 62/2/1 63/2/1
f 64/2/1 25/2/1 44/2/1
f 64/2/1 44/2/1 52/2/1
f 64/2/1 52/2/1 57/2/1
f 69/4/1 68/4/1 67/4/1
f 70/4/1 68/4/1 69/4/1
f 71/4/1 69/4/1 67/4/1
f 72/4/1 68/4/1 70/4/1
f 73/4/1 66/4/1 65/4/1
f 74/4/1 72/4/1 71/4/1
f 74/4/1 71/4/1 67/4/1
f 75/4/1 73/4/1 65/4/1
f 75/4/1 74/4/1 73/4/1
f 76/4/1 72/4/1 74/4/1
f 76/4/1 74/4/1 75/4/1
f 76/4/1 68/4/1 72/4/1
f 79/4/1 78/4/1 77/4/1
f 80/4/1 78/4/1 79/4/1
f 81/4/1 79/4/1 77/4/1
f 82/4/1 79/4/1 81/4/1
f 83/4/1 79/4/1 82/4/1
f 84/4/1 78/4/1 80/4/1
f 85/4/1 81/4/1 77/4/1
f 85/1/1 82/1/1 81/1/1
f 86/4/1 83/4/1 82/4/1
f 86/1/1 82/1/1 85/1/1
f 86/4/1 84/4/1 83/4/1
f 87/4/1 85/4/1 77/4/1
f 87/4/1 86/4/1 85/4/1
f 88/4/1 84/4/1 86/4/1
f 88/4/1 86/4/1 87/4/1
f 88/4/1 78/4/1 84/4/1
f 91/3/1 90/3/1 89/3/1
f 92/3/1 90/3/1 91/3/1
f 93/4/1 92/4/1 91/4/1
f 94/4/1 92/4/1 93/4/1
f 95/4/2 96/4/2 97/4/2
f 97/4/2 96/4/2 98/4/2
f 99/6/2 100/6/2 101/6/2
f 101/6/2 100/6/2 102/6/2
f 103/6/2 104/6/2 106/6/2
f 104/4/2 105/4/2 107/4/2
f 106/6/2 104/6/2 107/6/2
f 107/4/2 105/4/2 108/4/2
f 108/4/2 105/4/2 109/4/2
f 110/5/2 111/5/2 112/5/2
f 112/5/2 111/5/2 113/5/2
f 116/6/3 115/6/3 114/6/3
f 117/6/3 115/6/3 116/6/3
f 118/6/3 115/6/3 117/6/3
f 119/5/3 117/5/3 116/5/3
f 120/5/3 117/5/3 119/5/3
f 123/4/3 122/4/3 121/4/3
f 124/4/3 122/4/3 123/4/3
f 127/6/3 126/6/3 125/6/3
f 128/6/3 126/6/3 127/6/3
f 131/4/3 130/4/3 129/4/3
f 132/4/3 130/4/3 131/4/3
f 135/6/3 134/6/3 133/6/3
f 136/6/3 134/6/3 135/6/3
f 139/4/3 138/4/3 137/4/3
f 140/4/3 138/4/3 139/4/3
f 141/4/3 138/4/3 140/4/3
f 144/4/3 143/4/3 142/4/3
f 145/4/3 143/4/3 144/4/3
f 148/2/3 147/2/3 146/2/3
f 149/2/3 147/2/3 148/2/3
f 150/4/4 151/4/4 152/4/4
f 152/4/4 151/4/4 153/4/4
f 154/6/4 155/6/4 156/6/4
f 156/6/4 155/6/4 157/6/4
f 158/4/4 159/4/4 160/4/4
f 160/4/4 159/4/4 161/4/4
f 162/4/4 163/4/4 164/4/4
f 164/4/4 163/4/4 165/4/4
f 165/4/4 163/4/4 166/4/4
f 167/6/4 168/6/4 169/6/4
f 169/6/4 168/6/4 170/6/4
f 171/2/4 172/2/4 173/2/4
f 173/2/4 172/2/4 174/2/4
f 175/6/4 176/6/4 177/6/4
f 177/6/4 176/6/4 178/6/4
f 177/4/4 178/4/4 180/4/4
f 178/4/4 179/4/4 180/4/4
f 180/4/4 179/4/4 181/4/4
f 182/5/4 183/5/4 184/5/4
f 184/5/4 183/5/4 185/5/4
f 189/5/5 188/5/5 187/5/5
f 190/5/5 188/5/5 189/5/5
f 191/6/5 190/6/5 189/6/5
f 192/5/5 188/5/5 190/5/5
f 192/6/5 190/6/5 191/6/5
f 193/6/5 187/6/5 186/6/5
f 194/5/5 189/5/5 187/5/5
f 194/6/5 187/6/5 193/6/5
f 195/5/5 194/5/5 193/5/5
f 195/5/5 189/5/5 194/5/5
f 196/6/5 191/6/5 189/6/5
f 196/5/5 189/5/5 195/5/5
f 197/5/5 195/5/5 193/5/5
f 197/6/5 196/6/5 195/6/5
f 198/6/5 191/6/5 196/6/5
f 198/6/5 196/6/5 197/6/5
f 199/5/5 198/5/5 197/5/5
f 199/6/5 191/6/5 198/6/5
f 200/4/5 192/4/5 191/4/5
f 200/6/5 191/6/5 199/6/5
f 201/5/5 188/5/5 192/5/5
f 201/4/5 192/4/5 200/4/5
f 202/5/5 200/5/5 199/5/5
f 202/5/5 197/5/5 193/5/5
f 202/5/5 201/5/5 200/5/5
f 202/5/5 199/5/5 197/5/5
f 203/5/5 188/5/5 201/5/5
f 203/5/5 201/5/5 202/5/5
f 206/4/5 205/4/5 204/4/5
f 207/4/5 205/4/5 206/4/5
f 210/2/5 209/2/5 208/2/5
f 211/2/5 209/2/5 210/2/5
f 214/4/5 213/4/5 212/4/5
f 215/4/5 213/4/5 214/4/5
f 216/5/6 217/5/6 218/5/6
f 218/5/6 217/5/6 219/5/6
f 219/5/6 217/5/6 220/5/6
f 216/5/6 218/5/6 222/5/6
f 222/5/6 218/5/6 223/5/6
f 221/5/6 222/5/6 223/5/6
f 223/5/6 218/5/6 224/5/6
f 221/5/6 223/5/6 225/5/6
f 225/5/6 226/5/6 227/5/6
f 220/5/6 217/5/6 229/5/6
f 227/5/6 228/5/6 230/5/6
f 228/5/6 229/5/6 230/5/6
f 225/5/6 227/5/6 230/5/6
f 221/5/6 225/5/6 230/5/6
f 229/5/6 217/5/6 231/5/6
f 230/5/6 229/5/6 231/5/6
f 232/6/6 233/6/6 234/6/6
f 234/6/6 233/6/6 235/6/6
f 236/6/6 237/6/6 238/6/6
f 238/6/6 237/6/6 239/6/6
f 232/6/6 234/6/6 240/6/6
f 235/6/6 233/6/6 241/6/6
f 232/6/6 240/6/6 242/6/6
f 240/6/6 241/6/6 242/6/6
f 241/6/6 233/6/6 243/6/6
f 242/6/6 241/6/6 243/6/6
f 236/6/6 238/6/6 245/6/6
f 245/6/6 238/6/6 246/6/6
f 244/6/6 245/6/6 246/6/6
f 244/6/6 246/6/6 248/6/6
f 246/4/6 247/4/6 248/4/6
f 248/4/6 247/4/6 249/4/6
f 244/6/6 248/6/6 250/6/6
f 250/6/6 248/6/6 251/6/6
f 251/6/6 248/6/6 252/6/6
f 252/6/6 248/6/6 253/6/6
f 254/4/6 255/4/6 256/4/6
f 256/4/6 255/4/6 257/4/6
f 258/2/6 259/2/6 260/2/6
f 260/2/6 259/2/6 261/2/6
f 262/4/6 263/4/6 266/4/6
f 266/4/6 263/4/6 267/4/6
f 264/4/6 265/4/6 268/4/6
f 268/4/6 265/4/6 269/4/6
