# MagicaVoxel @ Ephtracy

# group
o 

# material
mtllib Building1Var1-Base-0.mtl
usemtl palette

# normals
vn -1 0 0
vn 1 0 0
vn 0 -1 0
vn 0 1 0
vn 0 0 -1
vn 0 0 1

# texcoords
vt 0.427734 0.5
vt 0.779297 0.5
vt 0.958984 0.5
vt 0.982422 0.5

# verts
v -50 -50 -40
v -50 -29 -40
v -50 -50 -28
v -50 -29 -28
v -44 -44 -28
v -44 -34 -28
v -44 -44 40
v -44 -34 40
v -40 -29 -40
v -40 40 -40
v -40 -29 -28
v -40 40 -28
v -40 -24 -13
v -40 22 -13
v -40 -24 -12
v -40 22 -12
v -39 -34 -28
v -39 40 -28
v -39 -24 -13
v -39 22 -13
v -39 -24 -12
v -39 -22 -12
v -39 -2 -12
v -39 1 -12
v -39 20 -12
v -39 22 -12
v -39 -22 17
v -39 -2 17
v -39 1 17
v -39 20 17
v -39 -34 40
v -39 40 40
v -38 -3 -12
v -38 -2 -12
v -38 1 -12
v -38 2 -12
v -38 -3 17
v -38 -2 17
v -38 1 17
v -38 2 17
v -35 2 -12
v -35 20 -12
v -35 2 17
v -35 20 17
v -34 -22 -12
v -34 -3 -12
v -34 -22 17
v -34 -3 17
v -34 -44 -28
v -34 -39 -28
v -34 -44 40
v -34 -39 40
v -29 -50 -40
v -29 -40 -40
v -29 -50 -28
v -29 -40 -28
v 40 -40 -40
v 40 -39 -40
v 40 40 -40
v 40 -40 -28
v 40 -39 -28
v 40 -39 40
v 40 40 40
v -50 -50 -40
v -50 -50 -28
v -29 -50 -40
v -29 -50 -28
v -44 -44 -28
v -44 -44 40
v -34 -44 -28
v -34 -44 40
v -29 -40 -40
v -29 -40 -28
v 40 -40 -40
v 40 -40 -28
v -34 -39 -28
v -34 -39 40
v 40 -39 -28
v 40 -39 40
v -40 -24 -13
v -40 -24 -12
v -39 -24 -13
v -39 -24 -12
v -38 -3 -12
v -38 -3 17
v -34 -3 -12
v -34 -3 17
v -39 -2 -12
v -39 -2 17
v -38 -2 -12
v -38 -2 17
v -39 20 -12
v -39 20 17
v -35 20 -12
v -35 20 17
v -44 -34 -28
v -44 -34 40
v -39 -34 -28
v -39 -34 40
v -50 -29 -40
v -50 -29 -28
v -40 -29 -40
v -40 -29 -28
v -39 -22 -12
v -39 -22 17
v -34 -22 -12
v -34 -22 17
v -39 1 -12
v -39 1 17
v -38 1 -12
v -38 1 17
v -38 2 -12
v -38 2 17
v -35 2 -12
v -35 2 17
v -40 22 -13
v -40 22 -12
v -39 22 -13
v -39 22 -12
v -40 40 -40
v -40 40 -28
v -39 40 -40
v -39 40 -28
v -39 40 40
v 40 40 -40
v 40 40 40
v -50 -50 -40
v -29 -50 -40
v -29 -40 -40
v 40 -40 -40
v -39 -39 -40
v 40 -39 -40
v -50 -29 -40
v -40 -29 -40
v -40 40 -40
v -39 40 -40
v 40 40 -40
v -40 -24 -13
v -39 -24 -13
v -40 22 -13
v -39 22 -13
v -39 -22 17
v -34 -22 17
v -38 -3 17
v -34 -3 17
v -39 -2 17
v -38 -2 17
v -39 1 17
v -38 1 17
v -38 2 17
v -35 2 17
v -39 20 17
v -35 20 17
v -50 -50 -28
v -29 -50 -28
v -44 -44 -28
v -34 -44 -28
v -29 -40 -28
v 40 -40 -28
v -34 -39 -28
v 40 -39 -28
v -44 -34 -28
v -39 -34 -28
v -50 -29 -28
v -40 -29 -28
v -40 40 -28
v -39 40 -28
v -40 -24 -12
v -39 -24 -12
v -39 -22 -12
v -34 -22 -12
v -38 -3 -12
v -34 -3 -12
v -39 -2 -12
v -38 -2 -12
v -39 1 -12
v -38 1 -12
v -38 2 -12
v -35 2 -12
v -39 20 -12
v -35 20 -12
v -40 22 -12
v -39 22 -12
v -44 -44 40
v -34 -44 40
v -34 -39 40
v 40 -39 40
v -44 -34 40
v -39 -34 40
v -39 40 40
v 40 40 40

# faces
f 3/4/1 2/4/1 1/4/1
f 4/4/1 2/4/1 3/4/1
f 7/3/1 6/3/1 5/3/1
f 8/3/1 6/3/1 7/3/1
f 11/4/1 10/4/1 9/4/1
f 12/4/1 10/4/1 11/4/1
f 15/3/1 14/3/1 13/3/1
f 16/3/1 14/3/1 15/3/1
f 19/3/1 18/3/1 17/3/1
f 20/3/1 18/3/1 19/3/1
f 21/3/1 19/3/1 17/3/1
f 26/3/1 18/3/1 20/3/1
f 27/3/1 22/3/1 21/3/1
f 28/3/1 24/3/1 23/3/1
f 29/3/1 24/3/1 28/3/1
f 30/3/1 26/3/1 25/3/1
f 31/3/1 27/3/1 21/3/1
f 31/3/1 30/3/1 29/3/1
f 31/3/1 21/3/1 17/3/1
f 31/3/1 29/3/1 28/3/1
f 31/3/1 28/3/1 27/3/1
f 32/3/1 26/3/1 30/3/1
f 32/3/1 30/3/1 31/3/1
f 32/3/1 18/3/1 26/3/1
f 37/3/1 34/3/1 33/3/1
f 38/3/1 34/3/1 37/3/1
f 39/3/1 36/3/1 35/3/1
f 40/3/1 36/3/1 39/3/1
f 43/1/1 42/1/1 41/1/1
f 44/1/1 42/1/1 43/1/1
f 47/1/1 46/1/1 45/1/1
f 48/1/1 46/1/1 47/1/1
f 49/3/2 50/3/2 51/3/2
f 51/3/2 50/3/2 52/3/2
f 53/4/2 54/4/2 55/4/2
f 55/4/2 54/4/2 56/4/2
f 57/4/2 58/4/2 60/4/2
f 58/3/2 59/3/2 61/3/2
f 60/4/2 58/4/2 61/4/2
f 61/3/2 59/3/2 62/3/2
f 62/3/2 59/3/2 63/3/2
f 66/4/3 65/4/3 64/4/3
f 67/4/3 65/4/3 66/4/3
f 70/3/3 69/3/3 68/3/3
f 71/3/3 69/3/3 70/3/3
f 74/4/3 73/4/3 72/4/3
f 75/4/3 73/4/3 74/4/3
f 78/3/3 77/3/3 76/3/3
f 79/3/3 77/3/3 78/3/3
f 82/3/3 81/3/3 80/3/3
f 83/3/3 81/3/3 82/3/3
f 86/3/3 85/3/3 84/3/3
f 87/3/3 85/3/3 86/3/3
f 90/3/3 89/3/3 88/3/3
f 91/3/3 89/3/3 90/3/3
f 94/3/3 93/3/3 92/3/3
f 95/3/3 93/3/3 94/3/3
f 96/3/4 97/3/4 98/3/4
f 98/3/4 97/3/4 99/3/4
f 100/4/4 101/4/4 102/4/4
f 102/4/4 101/4/4 103/4/4
f 104/3/4 105/3/4 106/3/4
f 106/3/4 105/3/4 107/3/4
f 108/3/4 109/3/4 110/3/4
f 110/3/4 109/3/4 111/3/4
f 112/3/4 113/3/4 114/3/4
f 114/3/4 113/3/4 115/3/4
f 116/3/4 117/3/4 118/3/4
f 118/3/4 117/3/4 119/3/4
f 120/4/4 121/4/4 122/4/4
f 122/4/4 121/4/4 123/4/4
f 122/3/4 123/3/4 125/3/4
f 123/3/4 124/3/4 125/3/4
f 125/3/4 124/3/4 126/3/4
f 129/4/5 128/4/5 127/4/5
f 131/4/5 129/4/5 127/4/5
f 131/4/5 130/4/5 129/4/5
f 132/4/5 130/4/5 131/4/5
f 133/4/5 131/4/5 127/4/5
f 134/4/5 131/4/5 133/4/5
f 135/4/5 131/4/5 134/4/5
f 136/3/5 132/3/5 131/3/5
f 136/4/5 131/4/5 135/4/5
f 137/3/5 132/3/5 136/3/5
f 140/3/5 139/3/5 138/3/5
f 141/3/5 139/3/5 140/3/5
f 144/3/5 143/3/5 142/3/5
f 145/3/5 143/3/5 144/3/5
f 146/3/5 144/3/5 142/3/5
f 147/3/5 144/3/5 146/3/5
f 150/3/5 149/3/5 148/3/5
f 152/3/5 150/3/5 148/3/5
f 152/3/5 151/3/5 150/3/5
f 153/3/5 151/3/5 152/3/5
f 154/4/6 155/4/6 156/4/6
f 156/4/6 155/4/6 157/4/6
f 157/4/6 155/4/6 158/4/6
f 157/4/6 158/4/6 160/4/6
f 158/4/6 159/4/6 160/4/6
f 160/4/6 159/4/6 161/4/6
f 154/4/6 156/4/6 162/4/6
f 154/4/6 162/4/6 164/4/6
f 162/4/6 163/4/6 164/4/6
f 164/4/6 163/4/6 165/4/6
f 165/4/6 163/4/6 166/4/6
f 166/4/6 163/4/6 167/4/6
f 168/3/6 169/3/6 170/3/6
f 170/3/6 171/3/6 172/3/6
f 172/3/6 171/3/6 173/3/6
f 168/3/6 170/3/6 174/3/6
f 170/3/6 172/3/6 174/3/6
f 174/3/6 172/3/6 175/3/6
f 168/3/6 174/3/6 176/3/6
f 176/3/6 177/3/6 178/3/6
f 176/3/6 178/3/6 180/3/6
f 178/3/6 179/3/6 180/3/6
f 168/3/6 176/3/6 180/3/6
f 180/3/6 179/3/6 181/3/6
f 168/3/6 180/3/6 182/3/6
f 182/3/6 180/3/6 183/3/6
f 184/3/6 185/3/6 186/3/6
f 184/3/6 186/3/6 188/3/6
f 186/3/6 187/3/6 188/3/6
f 188/3/6 187/3/6 189/3/6
f 189/3/6 187/3/6 190/3/6
f 190/3/6 187/3/6 191/3/6
