# MagicaVoxel @ Ephtracy

# group
o 

# material
mtllib Building1-Roof-0.mtl
usemtl palette

# normals
vn -1 0 0
vn 1 0 0
vn 0 -1 0
vn 0 1 0
vn 0 0 -1
vn 0 0 1

# texcoords
vt 0.986328 0.5
vt 0.990234 0.5

# verts
v -50 -50 -40
v -50 -29 -40
v -50 -50 -31
v -50 -29 -31
v -40 -29 -40
v -40 40 -40
v -40 -29 -31
v -40 40 -31
v -35 -35 -35
v -35 40 -35
v -35 -35 -31
v -35 40 -31
v -29 -50 -40
v -29 -40 -40
v -29 -50 -31
v -29 -40 -31
v 40 -40 -40
v 40 -35 -40
v 40 40 -40
v 40 -35 -35
v 40 40 -35
v 40 -40 -31
v 40 -35 -31
v -50 -50 -40
v -50 -50 -31
v -29 -50 -40
v -29 -50 -31
v -29 -40 -40
v -29 -40 -31
v 40 -40 -40
v 40 -40 -31
v -35 -35 -35
v -35 -35 -31
v 40 -35 -35
v 40 -35 -31
v -50 -29 -40
v -50 -29 -31
v -40 -29 -40
v -40 -29 -31
v -40 40 -40
v -40 40 -31
v -35 40 -40
v -35 40 -35
v -35 40 -31
v 40 40 -40
v 40 40 -35
v -50 -50 -40
v -29 -50 -40
v -29 -40 -40
v 40 -40 -40
v -35 -35 -40
v 40 -35 -40
v -50 -29 -40
v -40 -29 -40
v -40 40 -40
v -35 40 -40
v 40 40 -40
v -35 -35 -35
v 40 -35 -35
v -35 40 -35
v 40 40 -35
v -50 -50 -31
v -29 -50 -31
v -29 -40 -31
v 40 -40 -31
v -35 -35 -31
v 40 -35 -31
v -50 -29 -31
v -40 -29 -31
v -40 40 -31
v -35 40 -31

# faces
f 3/1/1 2/1/1 1/1/1
f 4/1/1 2/1/1 3/1/1
f 7/1/1 6/1/1 5/1/1
f 8/1/1 6/1/1 7/1/1
f 9/1/2 10/1/2 11/1/2
f 11/1/2 10/1/2 12/1/2
f 13/1/2 14/1/2 15/1/2
f 15/1/2 14/1/2 16/1/2
f 17/1/2 18/1/2 20/1/2
f 18/2/2 19/2/2 20/2/2
f 20/2/2 19/2/2 21/2/2
f 17/1/2 20/1/2 22/1/2
f 22/1/2 20/1/2 23/1/2
f 26/1/3 25/1/3 24/1/3
f 27/1/3 25/1/3 26/1/3
f 30/1/3 29/1/3 28/1/3
f 31/1/3 29/1/3 30/1/3
f 32/1/4 33/1/4 34/1/4
f 34/1/4 33/1/4 35/1/4
f 36/1/4 37/1/4 38/1/4
f 38/1/4 37/1/4 39/1/4
f 40/1/4 41/1/4 42/1/4
f 42/1/4 41/1/4 43/1/4
f 43/1/4 41/1/4 44/1/4
f 42/2/4 43/2/4 45/2/4
f 45/2/4 43/2/4 46/2/4
f 49/1/5 48/1/5 47/1/5
f 51/1/5 49/1/5 47/1/5
f 51/1/5 50/1/5 49/1/5
f 52/1/5 50/1/5 51/1/5
f 53/1/5 51/1/5 47/1/5
f 54/1/5 51/1/5 53/1/5
f 55/1/5 51/1/5 54/1/5
f 56/2/5 52/2/5 51/2/5
f 56/1/5 51/1/5 55/1/5
f 57/2/5 52/2/5 56/2/5
f 58/2/6 59/2/6 60/2/6
f 60/2/6 59/2/6 61/2/6
f 62/1/6 63/1/6 64/1/6
f 62/1/6 64/1/6 66/1/6
f 64/1/6 65/1/6 66/1/6
f 66/1/6 65/1/6 67/1/6
f 62/1/6 66/1/6 68/1/6
f 68/1/6 66/1/6 69/1/6
f 69/1/6 66/1/6 70/1/6
f 70/1/6 66/1/6 71/1/6
