# MagicaVoxel @ Ephtracy

# group
o 

# material
mtllib Lamp-0.mtl
usemtl palette

# normals
vn -1 0 0
vn 1 0 0
vn 0 -1 0
vn 0 1 0
vn 0 0 -1
vn 0 0 1

# texcoords
vt 0.494141 0.5
vt 0.966797 0.5
vt 0.986328 0.5

# verts
v -20 -20 -50
v -20 20 -50
v -20 -20 -45
v -20 20 -45
v -20 -2 42
v -20 2 42
v -20 -2 45
v -20 2 45
v -20 -2 48
v -20 2 48
v 7 -3 -45
v 7 3 -45
v 7 -3 -39
v 7 3 -39
v 8 -2 -39
v 8 2 -39
v 8 -2 42
v 8 2 42
v 8 -2 48
v 8 2 48
v 8 -2 50
v 8 2 50
v 12 -2 -39
v 12 2 -39
v 12 -2 45
v 12 2 45
v 12 -2 48
v 12 2 48
v 12 -2 50
v 12 2 50
v 13 -3 -45
v 13 3 -45
v 13 -3 -39
v 13 3 -39
v 17 -2 45
v 17 2 45
v 17 -2 48
v 17 2 48
v 20 -20 -50
v 20 20 -50
v 20 -20 -45
v 20 20 -45
v -20 -20 -50
v -20 -20 -45
v 20 -20 -50
v 20 -20 -45
v 7 -3 -45
v 7 -3 -39
v 13 -3 -45
v 13 -3 -39
v -20 -2 42
v -20 -2 45
v -20 -2 48
v 8 -2 -39
v 8 -2 42
v 8 -2 45
v 8 -2 48
v 8 -2 50
v 12 -2 -39
v 12 -2 45
v 12 -2 48
v 12 -2 50
v 17 -2 45
v 17 -2 48
v -20 2 42
v -20 2 45
v -20 2 48
v 8 2 -39
v 8 2 42
v 8 2 45
v 8 2 48
v 8 2 50
v 12 2 -39
v 12 2 45
v 12 2 48
v 12 2 50
v 17 2 45
v 17 2 48
v 7 3 -45
v 7 3 -39
v 13 3 -45
v 13 3 -39
v -20 20 -50
v -20 20 -45
v 20 20 -50
v 20 20 -45
v -20 -20 -50
v 20 -20 -50
v -20 20 -50
v 20 20 -50
v -20 -2 42
v 8 -2 42
v -20 2 42
v 8 2 42
v 12 -2 45
v 17 -2 45
v 12 2 45
v 17 2 45
v -20 -20 -45
v 20 -20 -45
v 7 -3 -45
v 13 -3 -45
v 7 3 -45
v 13 3 -45
v -20 20 -45
v 20 20 -45
v 7 -3 -39
v 13 -3 -39
v 8 -2 -39
v 12 -2 -39
v 8 2 -39
v 12 2 -39
v 7 3 -39
v 13 3 -39
v -20 -2 48
v 8 -2 48
v 12 -2 48
v 17 -2 48
v -20 2 48
v 8 2 48
v 12 2 48
v 17 2 48
v 8 -2 50
v 12 -2 50
v 8 2 50
v 12 2 50

# faces
f 3/2/1 2/2/1 1/2/1
f 4/2/1 2/2/1 3/2/1
f 7/1/1 6/1/1 5/1/1
f 8/1/1 6/1/1 7/1/1
f 9/3/1 8/3/1 7/3/1
f 10/3/1 8/3/1 9/3/1
f 13/3/1 12/3/1 11/3/1
f 14/3/1 12/3/1 13/3/1
f 17/3/1 16/3/1 15/3/1
f 18/3/1 16/3/1 17/3/1
f 21/3/1 20/3/1 19/3/1
f 22/3/1 20/3/1 21/3/1
f 23/3/2 24/3/2 25/3/2
f 25/3/2 24/3/2 26/3/2
f 27/3/2 28/3/2 29/3/2
f 29/3/2 28/3/2 30/3/2
f 31/3/2 32/3/2 33/3/2
f 33/3/2 32/3/2 34/3/2
f 35/3/2 36/3/2 37/3/2
f 37/3/2 36/3/2 38/3/2
f 39/2/2 40/2/2 41/2/2
f 41/2/2 40/2/2 42/2/2
f 45/2/3 44/2/3 43/2/3
f 46/2/3 44/2/3 45/2/3
f 49/3/3 48/3/3 47/3/3
f 50/3/3 48/3/3 49/3/3
f 55/1/3 52/1/3 51/1/3
f 56/3/3 53/3/3 52/3/3
f 56/1/3 52/1/3 55/1/3
f 57/3/3 53/3/3 56/3/3
f 59/3/3 55/3/3 54/3/3
f 59/3/3 58/3/3 57/3/3
f 59/3/3 57/3/3 56/3/3
f 59/3/3 56/3/3 55/3/3
f 60/3/3 58/3/3 59/3/3
f 61/3/3 58/3/3 60/3/3
f 62/3/3 58/3/3 61/3/3
f 63/3/3 61/3/3 60/3/3
f 64/3/3 61/3/3 63/3/3
f 65/1/4 66/1/4 69/1/4
f 66/3/4 67/3/4 70/3/4
f 69/1/4 66/1/4 70/1/4
f 70/3/4 67/3/4 71/3/4
f 68/3/4 69/3/4 73/3/4
f 71/3/4 72/3/4 73/3/4
f 70/3/4 71/3/4 73/3/4
f 69/3/4 70/3/4 73/3/4
f 73/3/4 72/3/4 74/3/4
f 74/3/4 72/3/4 75/3/4
f 75/3/4 72/3/4 76/3/4
f 74/3/4 75/3/4 77/3/4
f 77/3/4 75/3/4 78/3/4
f 79/3/4 80/3/4 81/3/4
f 81/3/4 80/3/4 82/3/4
f 83/2/4 84/2/4 85/2/4
f 85/2/4 84/2/4 86/2/4
f 89/2/5 88/2/5 87/2/5
f 90/2/5 88/2/5 89/2/5
f 93/1/5 92/1/5 91/1/5
f 94/1/5 92/1/5 93/1/5
f 97/3/5 96/3/5 95/3/5
f 98/3/5 96/3/5 97/3/5
f 99/2/6 100/2/6 101/2/6
f 101/2/6 100/2/6 102/2/6
f 99/2/6 101/2/6 103/2/6
f 102/2/6 100/2/6 104/2/6
f 99/2/6 103/2/6 105/2/6
f 103/2/6 104/2/6 105/2/6
f 104/2/6 100/2/6 106/2/6
f 105/2/6 104/2/6 106/2/6
f 107/3/6 108/3/6 109/3/6
f 109/3/6 108/3/6 110/3/6
f 107/3/6 109/3/6 111/3/6
f 110/3/6 108/3/6 112/3/6
f 107/3/6 111/3/6 113/3/6
f 111/3/6 112/3/6 113/3/6
f 112/3/6 108/3/6 114/3/6
f 113/3/6 112/3/6 114/3/6
f 115/3/6 116/3/6 119/3/6
f 119/3/6 116/3/6 120/3/6
f 117/3/6 118/3/6 121/3/6
f 121/3/6 118/3/6 122/3/6
f 123/3/6 124/3/6 125/3/6
f 125/3/6 124/3/6 126/3/6
