# MagicaVoxel @ Ephtracy

# group
o 

# material
mtllib Building2-Base-0.mtl
usemtl palette

# normals
vn -1 0 0
vn 1 0 0
vn 0 -1 0
vn 0 1 0
vn 0 0 -1
vn 0 0 1

# texcoords
vt 0.427734 0.5
vt 0.654297 0.5
vt 0.677734 0.5
vt 0.982422 0.5

# verts
v -40 -40 -40
v -40 40 -40
v -40 -40 -28
v -40 40 -28
v -40 -24 -13
v -40 22 -13
v -40 -24 -12
v -40 22 -12
v -39 -39 -28
v -39 40 -28
v -39 -24 -13
v -39 22 -13
v -39 -24 -12
v -39 -22 -12
v -39 -2 -12
v -39 1 -12
v -39 20 -12
v -39 22 -12
v -39 -22 17
v -39 -2 17
v -39 1 17
v -39 20 17
v -39 -39 40
v -39 40 40
v -38 -3 -12
v -38 -2 -12
v -38 1 -12
v -38 2 -12
v -38 -3 17
v -38 -2 17
v -38 1 17
v -38 2 17
v -35 2 -12
v -35 20 -12
v -35 2 17
v -35 20 17
v -34 -22 -12
v -34 -3 -12
v -34 -22 17
v -34 -3 17
v 40 -40 -40
v 40 -39 -40
v 40 40 -40
v 40 -40 -28
v 40 -39 -28
v 40 -39 40
v 40 40 40
v -40 -40 -40
v -40 -40 -28
v 40 -40 -40
v 40 -40 -28
v -39 -39 -28
v -39 -39 40
v 40 -39 -28
v 40 -39 40
v -40 -24 -13
v -40 -24 -12
v -39 -24 -13
v -39 -24 -12
v -38 -3 -12
v -38 -3 17
v -34 -3 -12
v -34 -3 17
v -39 -2 -12
v -39 -2 17
v -38 -2 -12
v -38 -2 17
v -39 20 -12
v -39 20 17
v -35 20 -12
v -35 20 17
v -39 -22 -12
v -39 -22 17
v -34 -22 -12
v -34 -22 17
v -39 1 -12
v -39 1 17
v -38 1 -12
v -38 1 17
v -38 2 -12
v -38 2 17
v -35 2 -12
v -35 2 17
v -40 22 -13
v -40 22 -12
v -39 22 -13
v -39 22 -12
v -40 40 -40
v -40 40 -28
v -39 40 -40
v -39 40 -28
v -39 40 40
v 40 40 -40
v 40 40 40
v -40 -40 -40
v 40 -40 -40
v -39 -39 -40
v 40 -39 -40
v -40 40 -40
v -39 40 -40
v 40 40 -40
v -40 -24 -13
v -39 -24 -13
v -40 22 -13
v -39 22 -13
v -39 -22 17
v -34 -22 17
v -38 -3 17
v -34 -3 17
v -39 -2 17
v -38 -2 17
v -39 1 17
v -38 1 17
v -38 2 17
v -35 2 17
v -39 20 17
v -35 20 17
v -40 -40 -28
v 40 -40 -28
v -39 -39 -28
v 40 -39 -28
v -40 40 -28
v -39 40 -28
v -40 -24 -12
v -39 -24 -12
v -39 -22 -12
v -34 -22 -12
v -38 -3 -12
v -34 -3 -12
v -39 -2 -12
v -38 -2 -12
v -39 1 -12
v -38 1 -12
v -38 2 -12
v -35 2 -12
v -39 20 -12
v -35 20 -12
v -40 22 -12
v -39 22 -12
v -39 -39 40
v 40 -39 40
v -39 40 40
v 40 40 40

# faces
f 3/4/1 2/4/1 1/4/1
f 4/4/1 2/4/1 3/4/1
f 7/2/1 6/2/1 5/2/1
f 8/2/1 6/2/1 7/2/1
f 11/3/1 10/3/1 9/3/1
f 12/3/1 10/3/1 11/3/1
f 13/3/1 11/3/1 9/3/1
f 18/3/1 10/3/1 12/3/1
f 19/3/1 14/3/1 13/3/1
f 20/3/1 16/3/1 15/3/1
f 21/3/1 16/3/1 20/3/1
f 22/3/1 18/3/1 17/3/1
f 23/3/1 19/3/1 13/3/1
f 23/3/1 22/3/1 21/3/1
f 23/3/1 13/3/1 9/3/1
f 23/3/1 21/3/1 20/3/1
f 23/3/1 20/3/1 19/3/1
f 24/3/1 18/3/1 22/3/1
f 24/3/1 22/3/1 23/3/1
f 24/3/1 10/3/1 18/3/1
f 29/3/1 26/3/1 25/3/1
f 30/3/1 26/3/1 29/3/1
f 31/3/1 28/3/1 27/3/1
f 32/3/1 28/3/1 31/3/1
f 35/1/1 34/1/1 33/1/1
f 36/1/1 34/1/1 35/1/1
f 39/1/1 38/1/1 37/1/1
f 40/1/1 38/1/1 39/1/1
f 41/4/2 42/4/2 44/4/2
f 42/3/2 43/3/2 45/3/2
f 44/4/2 42/4/2 45/4/2
f 45/3/2 43/3/2 46/3/2
f 46/3/2 43/3/2 47/3/2
f 50/4/3 49/4/3 48/4/3
f 51/4/3 49/4/3 50/4/3
f 54/3/3 53/3/3 52/3/3
f 55/3/3 53/3/3 54/3/3
f 58/2/3 57/2/3 56/2/3
f 59/2/3 57/2/3 58/2/3
f 62/3/3 61/3/3 60/3/3
f 63/3/3 61/3/3 62/3/3
f 66/3/3 65/3/3 64/3/3
f 67/3/3 65/3/3 66/3/3
f 70/3/3 69/3/3 68/3/3
f 71/3/3 69/3/3 70/3/3
f 72/3/4 73/3/4 74/3/4
f 74/3/4 73/3/4 75/3/4
f 76/3/4 77/3/4 78/3/4
f 78/3/4 77/3/4 79/3/4
f 80/3/4 81/3/4 82/3/4
f 82/3/4 81/3/4 83/3/4
f 84/2/4 85/2/4 86/2/4
f 86/2/4 85/2/4 87/2/4
f 88/4/4 89/4/4 90/4/4
f 90/4/4 89/4/4 91/4/4
f 90/3/4 91/3/4 93/3/4
f 91/3/4 92/3/4 93/3/4
f 93/3/4 92/3/4 94/3/4
f 97/4/5 96/4/5 95/4/5
f 98/4/5 96/4/5 97/4/5
f 99/4/5 97/4/5 95/4/5
f 100/3/5 98/3/5 97/3/5
f 100/4/5 97/4/5 99/4/5
f 101/3/5 98/3/5 100/3/5
f 104/2/5 103/2/5 102/2/5
f 105/2/5 103/2/5 104/2/5
f 108/3/5 107/3/5 106/3/5
f 109/3/5 107/3/5 108/3/5
f 110/3/5 108/3/5 106/3/5
f 111/3/5 108/3/5 110/3/5
f 114/3/5 113/3/5 112/3/5
f 116/3/5 114/3/5 112/3/5
f 116/3/5 115/3/5 114/3/5
f 117/3/5 115/3/5 116/3/5
f 118/4/6 119/4/6 120/4/6
f 120/4/6 119/4/6 121/4/6
f 118/4/6 120/4/6 122/4/6
f 122/4/6 120/4/6 123/4/6
f 124/2/6 125/2/6 126/2/6
f 126/3/6 127/3/6 128/3/6
f 128/3/6 127/3/6 129/3/6
f 124/2/6 126/2/6 130/2/6
f 126/3/6 128/3/6 130/3/6
f 130/3/6 128/3/6 131/3/6
f 124/2/6 130/2/6 132/2/6
f 132/3/6 133/3/6 134/3/6
f 132/3/6 134/3/6 136/3/6
f 134/3/6 135/3/6 136/3/6
f 124/2/6 132/2/6 136/2/6
f 136/3/6 135/3/6 137/3/6
f 124/2/6 136/2/6 138/2/6
f 138/2/6 136/2/6 139/2/6
f 140/3/6 141/3/6 142/3/6
f 142/3/6 141/3/6 143/3/6
