# MagicaVoxel @ Ephtracy

# group
o 

# material
mtllib Building2Var2-Base-0.mtl
usemtl palette

# normals
vn -1 0 0
vn 1 0 0
vn 0 -1 0
vn 0 1 0
vn 0 0 -1
vn 0 0 1

# texcoords
vt 0.427734 0.5
vt 0.548828 0.5
vt 0.982422 0.5

# verts
v -40 -40 -40
v -40 40 -40
v -40 -40 -28
v -40 40 -28
v -40 -24 -13
v -40 22 -13
v -40 -24 -12
v -40 22 -12
v -39 -39 -28
v -39 40 -28
v -39 -24 -13
v -39 22 -13
v -39 -24 -12
v -39 -22 -12
v -39 -2 -12
v -39 1 -12
v -39 20 -12
v -39 22 -12
v -39 -22 17
v -39 -2 17
v -39 1 17
v -39 20 17
v -39 -39 40
v -39 40 40
v -38 -3 -12
v -38 -2 -12
v -38 1 -12
v -38 2 -12
v -38 -3 17
v -38 -2 17
v -38 1 17
v -38 2 17
v -35 2 -12
v -35 20 -12
v -35 2 17
v -35 20 17
v -34 -22 -12
v -34 -3 -12
v -34 -22 17
v -34 -3 17
v 40 -40 -40
v 40 -39 -40
v 40 40 -40
v 40 -40 -28
v 40 -39 -28
v 40 -39 40
v 40 40 40
v -40 -40 -40
v -40 -40 -28
v 40 -40 -40
v 40 -40 -28
v -39 -39 -28
v -39 -39 40
v 40 -39 -28
v 40 -39 40
v -40 -24 -13
v -40 -24 -12
v -39 -24 -13
v -39 -24 -12
v -38 -3 -12
v -38 -3 17
v -34 -3 -12
v -34 -3 17
v -39 -2 -12
v -39 -2 17
v -38 -2 -12
v -38 -2 17
v -39 20 -12
v -39 20 17
v -35 20 -12
v -35 20 17
v -39 -22 -12
v -39 -22 17
v -34 -22 -12
v -34 -22 17
v -39 1 -12
v -39 1 17
v -38 1 -12
v -38 1 17
v -38 2 -12
v -38 2 17
v -35 2 -12
v -35 2 17
v -40 22 -13
v -40 22 -12
v -39 22 -13
v -39 22 -12
v -40 40 -40
v -40 40 -28
v -39 40 -40
v -39 40 -28
v -39 40 40
v 40 40 -40
v 40 40 40
v -40 -40 -40
v 40 -40 -40
v -39 -39 -40
v 40 -39 -40
v -40 40 -40
v -39 40 -40
v 40 40 -40
v -40 -24 -13
v -39 -24 -13
v -40 22 -13
v -39 22 -13
v -39 -22 17
v -34 -22 17
v -38 -3 17
v -34 -3 17
v -39 -2 17
v -38 -2 17
v -39 1 17
v -38 1 17
v -38 2 17
v -35 2 17
v -39 20 17
v -35 20 17
v -40 -40 -28
v 40 -40 -28
v -39 -39 -28
v 40 -39 -28
v -40 40 -28
v -39 40 -28
v -40 -24 -12
v -39 -24 -12
v -39 -22 -12
v -34 -22 -12
v -38 -3 -12
v -34 -3 -12
v -39 -2 -12
v -38 -2 -12
v -39 1 -12
v -38 1 -12
v -38 2 -12
v -35 2 -12
v -39 20 -12
v -35 20 -12
v -40 22 -12
v -39 22 -12
v -39 -39 40
v 40 -39 40
v -39 40 40
v 40 40 40

# faces
f 3/3/1 2/3/1 1/3/1
f 4/3/1 2/3/1 3/3/1
f 7/2/1 6/2/1 5/2/1
f 8/2/1 6/2/1 7/2/1
f 11/2/1 10/2/1 9/2/1
f 12/2/1 10/2/1 11/2/1
f 13/2/1 11/2/1 9/2/1
f 18/2/1 10/2/1 12/2/1
f 19/2/1 14/2/1 13/2/1
f 20/2/1 16/2/1 15/2/1
f 21/2/1 16/2/1 20/2/1
f 22/2/1 18/2/1 17/2/1
f 23/2/1 19/2/1 13/2/1
f 23/2/1 22/2/1 21/2/1
f 23/2/1 13/2/1 9/2/1
f 23/2/1 21/2/1 20/2/1
f 23/2/1 20/2/1 19/2/1
f 24/2/1 18/2/1 22/2/1
f 24/2/1 22/2/1 23/2/1
f 24/2/1 10/2/1 18/2/1
f 29/2/1 26/2/1 25/2/1
f 30/2/1 26/2/1 29/2/1
f 31/2/1 28/2/1 27/2/1
f 32/2/1 28/2/1 31/2/1
f 35/1/1 34/1/1 33/1/1
f 36/1/1 34/1/1 35/1/1
f 39/1/1 38/1/1 37/1/1
f 40/1/1 38/1/1 39/1/1
f 41/3/2 42/3/2 44/3/2
f 42/2/2 43/2/2 45/2/2
f 44/3/2 42/3/2 45/3/2
f 45/2/2 43/2/2 46/2/2
f 46/2/2 43/2/2 47/2/2
f 50/3/3 49/3/3 48/3/3
f 51/3/3 49/3/3 50/3/3
f 54/2/3 53/2/3 52/2/3
f 55/2/3 53/2/3 54/2/3
f 58/2/3 57/2/3 56/2/3
f 59/2/3 57/2/3 58/2/3
f 62/2/3 61/2/3 60/2/3
f 63/2/3 61/2/3 62/2/3
f 66/2/3 65/2/3 64/2/3
f 67/2/3 65/2/3 66/2/3
f 70/2/3 69/2/3 68/2/3
f 71/2/3 69/2/3 70/2/3
f 72/2/4 73/2/4 74/2/4
f 74/2/4 73/2/4 75/2/4
f 76/2/4 77/2/4 78/2/4
f 78/2/4 77/2/4 79/2/4
f 80/2/4 81/2/4 82/2/4
f 82/2/4 81/2/4 83/2/4
f 84/2/4 85/2/4 86/2/4
f 86/2/4 85/2/4 87/2/4
f 88/3/4 89/3/4 90/3/4
f 90/3/4 89/3/4 91/3/4
f 90/2/4 91/2/4 93/2/4
f 91/2/4 92/2/4 93/2/4
f 93/2/4 92/2/4 94/2/4
f 97/3/5 96/3/5 95/3/5
f 98/3/5 96/3/5 97/3/5
f 99/3/5 97/3/5 95/3/5
f 100/2/5 98/2/5 97/2/5
f 100/3/5 97/3/5 99/3/5
f 101/2/5 98/2/5 100/2/5
f 104/2/5 103/2/5 102/2/5
f 105/2/5 103/2/5 104/2/5
f 108/2/5 107/2/5 106/2/5
f 109/2/5 107/2/5 108/2/5
f 110/2/5 108/2/5 106/2/5
f 111/2/5 108/2/5 110/2/5
f 114/2/5 113/2/5 112/2/5
f 116/2/5 114/2/5 112/2/5
f 116/2/5 115/2/5 114/2/5
f 117/2/5 115/2/5 116/2/5
f 118/3/6 119/3/6 120/3/6
f 120/3/6 119/3/6 121/3/6
f 118/3/6 120/3/6 122/3/6
f 122/3/6 120/3/6 123/3/6
f 124/2/6 125/2/6 126/2/6
f 126/2/6 127/2/6 128/2/6
f 128/2/6 127/2/6 129/2/6
f 124/2/6 126/2/6 130/2/6
f 126/2/6 128/2/6 130/2/6
f 130/2/6 128/2/6 131/2/6
f 124/2/6 130/2/6 132/2/6
f 132/2/6 133/2/6 134/2/6
f 132/2/6 134/2/6 136/2/6
f 134/2/6 135/2/6 136/2/6
f 124/2/6 132/2/6 136/2/6
f 136/2/6 135/2/6 137/2/6
f 124/2/6 136/2/6 138/2/6
f 138/2/6 136/2/6 139/2/6
f 140/2/6 141/2/6 142/2/6
f 142/2/6 141/2/6 143/2/6
