# MagicaVoxel @ Ephtracy

# group
o 

# material
mtllib Bench.mtl
usemtl palette

# normals
vn -1 0 0
vn 1 0 0
vn 0 -1 0
vn 0 1 0
vn 0 0 -1
vn 0 0 1

# texcoords
vt 0.279297 0.5
vt 0.966797 0.5
vt 0.986328 0.5

# verts
v -40 -40 -20
v -40 40 -20
v -40 -40 -15
v -40 40 -15
v -24 -30 -15
v -24 -27 -15
v -24 -18 -15
v -24 -15 -15
v -24 -19 -11
v -24 -18 -11
v -24 -16 -11
v -24 -15 -11
v -24 -20 -8
v -24 -19 -8
v -24 -17 -8
v -24 -16 -8
v -24 -21 -6
v -24 -20 -6
v -24 -18 -6
v -24 -17 -6
v -24 -27 -4
v -24 -21 -4
v -24 -18 -4
v -24 -16 -4
v -24 -31 -2
v -24 -30 -2
v -24 -28 -2
v -24 -16 -2
v -24 -32 0
v -24 -31 0
v -24 -29 0
v -24 -28 0
v -24 -33 2
v -24 -32 2
v -24 -30 2
v -24 -29 2
v -24 -34 4
v -24 -33 4
v -24 -31 4
v -24 -30 4
v -24 -35 6
v -24 -34 6
v -24 -32 6
v -24 -31 6
v -24 -36 8
v -24 -35 8
v -24 -33 8
v -24 -32 8
v -24 -37 10
v -24 -36 10
v -24 -34 10
v -24 -33 10
v -24 -37 12
v -24 -34 12
v 21 -30 -15
v 21 -27 -15
v 21 -18 -15
v 21 -15 -15
v 21 -19 -11
v 21 -18 -11
v 21 -16 -11
v 21 -15 -11
v 21 -20 -8
v 21 -19 -8
v 21 -17 -8
v 21 -16 -8
v 21 -21 -6
v 21 -20 -6
v 21 -18 -6
v 21 -17 -6
v 21 -30 -4
v 21 -27 -4
v 21 -26 -4
v 21 -25 -4
v 21 -21 -4
v 21 -20 -4
v 21 -18 -4
v 21 -31 -2
v 21 -30 -2
v 21 -28 -2
v 21 -26 -2
v 21 -25 -2
v 21 -21 -2
v 21 -20 -2
v 21 -32 0
v 21 -31 0
v 21 -30 0
v 21 -29 0
v 21 -28 0
v 21 -33 2
v 21 -32 2
v 21 -30 2
v 21 -29 2
v 21 -34 4
v 21 -33 4
v 21 -32 4
v 21 -31 4
v 21 -35 6
v 21 -34 6
v 21 -32 6
v 21 -31 6
v 21 -36 8
v 21 -35 8
v 21 -34 8
v 21 -33 8
v 21 -37 10
v 21 -36 10
v 21 -34 10
v 21 -33 10
v 21 -37 12
v 21 -35 12
v -21 -30 -15
v -21 -27 -15
v -21 -18 -15
v -21 -15 -15
v -21 -19 -11
v -21 -18 -11
v -21 -16 -11
v -21 -15 -11
v -21 -20 -8
v -21 -19 -8
v -21 -17 -8
v -21 -16 -8
v -21 -21 -6
v -21 -20 -6
v -21 -18 -6
v -21 -17 -6
v -21 -30 -4
v -21 -27 -4
v -21 -26 -4
v -21 -25 -4
v -21 -21 -4
v -21 -20 -4
v -21 -18 -4
v -21 -31 -2
v -21 -30 -2
v -21 -28 -2
v -21 -26 -2
v -21 -25 -2
v -21 -21 -2
v -21 -20 -2
v -21 -32 0
v -21 -31 0
v -21 -30 0
v -21 -29 0
v -21 -28 0
v -21 -33 2
v -21 -32 2
v -21 -30 2
v -21 -29 2
v -21 -34 4
v -21 -33 4
v -21 -32 4
v -21 -31 4
v -21 -35 6
v -21 -34 6
v -21 -32 6
v -21 -31 6
v -21 -36 8
v -21 -35 8
v -21 -34 8
v -21 -33 8
v -21 -37 10
v -21 -36 10
v -21 -34 10
v -21 -33 10
v -21 -37 12
v -21 -35 12
v 24 -30 -15
v 24 -27 -15
v 24 -18 -15
v 24 -15 -15
v 24 -19 -11
v 24 -18 -11
v 24 -16 -11
v 24 -15 -11
v 24 -20 -8
v 24 -19 -8
v 24 -17 -8
v 24 -16 -8
v 24 -21 -6
v 24 -20 -6
v 24 -18 -6
v 24 -17 -6
v 24 -27 -4
v 24 -21 -4
v 24 -18 -4
v 24 -16 -4
v 24 -31 -2
v 24 -30 -2
v 24 -28 -2
v 24 -16 -2
v 24 -32 0
v 24 -31 0
v 24 -29 0
v 24 -28 0
v 24 -33 2
v 24 -32 2
v 24 -30 2
v 24 -29 2
v 24 -34 4
v 24 -33 4
v 24 -31 4
v 24 -30 4
v 24 -35 6
v 24 -34 6
v 24 -32 6
v 24 -31 6
v 24 -36 8
v 24 -35 8
v 24 -33 8
v 24 -32 8
v 24 -37 10
v 24 -36 10
v 24 -34 10
v 24 -33 10
v 24 -37 12
v 24 -34 12
v 40 -40 -20
v 40 40 -20
v 40 -40 -15
v 40 40 -15
v -40 -40 -20
v -40 -40 -15
v 40 -40 -20
v 40 -40 -15
v -24 -37 10
v -24 -37 12
v -21 -37 10
v -21 -37 12
v 21 -37 10
v 21 -37 12
v 24 -37 10
v 24 -37 12
v -24 -36 8
v -24 -36 10
v -21 -36 8
v -21 -36 10
v 21 -36 8
v 21 -36 10
v 24 -36 8
v 24 -36 10
v -24 -35 6
v -24 -35 8
v -21 -35 6
v -21 -35 8
v -21 -35 12
v 21 -35 6
v 21 -35 8
v 21 -35 12
v 24 -35 6
v 24 -35 8
v -24 -34 4
v -24 -34 6
v -21 -34 4
v -21 -34 6
v 21 -34 4
v 21 -34 6
v 24 -34 4
v 24 -34 6
v -24 -33 2
v -24 -33 4
v -21 -33 2
v -21 -33 4
v -21 -33 8
v 21 -33 2
v 21 -33 4
v 21 -33 8
v 24 -33 2
v 24 -33 4
v -24 -32 0
v -24 -32 2
v -21 -32 0
v -21 -32 2
v 21 -32 0
v 21 -32 2
v 24 -32 0
v 24 -32 2
v -24 -31 -2
v -24 -31 0
v -21 -31 -2
v -21 -31 0
v -21 -31 4
v 21 -31 -2
v 21 -31 0
v 21 -31 4
v 24 -31 -2
v 24 -31 0
v -24 -30 -15
v -24 -30 -2
v -21 -30 -15
v -21 -30 -4
v -21 -30 -2
v 21 -30 -15
v 21 -30 -4
v 21 -30 -2
v 24 -30 -15
v 24 -30 -2
v -21 -25 -4
v -21 -25 -2
v 21 -25 -4
v 21 -25 -2
v -24 -21 -6
v -24 -21 -4
v -21 -21 -6
v -21 -21 -4
v 21 -21 -6
v 21 -21 -4
v 24 -21 -6
v 24 -21 -4
v -24 -20 -8
v -24 -20 -6
v -21 -20 -8
v -21 -20 -6
v -21 -20 -4
v -21 -20 -2
v 21 -20 -8
v 21 -20 -6
v 21 -20 -4
v 21 -20 -2
v 24 -20 -8
v 24 -20 -6
v -24 -19 -11
v -24 -19 -8
v -21 -19 -11
v -21 -19 -8
v 21 -19 -11
v 21 -19 -8
v 24 -19 -11
v 24 -19 -8
v -24 -18 -15
v -24 -18 -11
v -21 -18 -15
v -21 -18 -11
v 21 -18 -15
v 21 -18 -11
v 24 -18 -15
v 24 -18 -11
v -24 -34 10
v -24 -34 12
v -21 -34 8
v -21 -34 10
v -21 -34 12
v 21 -34 8
v 21 -34 10
v 21 -34 12
v 24 -34 10
v 24 -34 12
v -24 -33 8
v -24 -33 10
v -21 -33 8
v -21 -33 10
v 21 -33 8
v 21 -33 10
v 24 -33 8
v 24 -33 10
v -24 -32 6
v -24 -32 8
v -21 -32 4
v -21 -32 6
v -21 -32 8
v 21 -32 4
v 21 -32 6
v 21 -32 8
v 24 -32 6
v 24 -32 8
v -24 -31 4
v -24 -31 6
v -21 -31 4
v -21 -31 6
v 21 -31 4
v 21 -31 6
v 24 -31 4
v 24 -31 6
v -24 -30 2
v -24 -30 4
v -21 -30 0
v -21 -30 2
v -21 -30 4
v 21 -30 0
v 21 -30 2
v 21 -30 4
v 24 -30 2
v 24 -30 4
v -24 -29 0
v -24 -29 2
v -21 -29 0
v -21 -29 2
v 21 -29 0
v 21 -29 2
v 24 -29 0
v 24 -29 2
v -24 -28 -2
v -24 -28 0
v -21 -28 -2
v -21 -28 0
v 21 -28 -2
v 21 -28 0
v 24 -28 -2
v 24 -28 0
v -24 -27 -15
v -24 -27 -4
v -21 -27 -15
v -21 -27 -4
v 21 -27 -15
v 21 -27 -4
v 24 -27 -15
v 24 -27 -4
v -21 -26 -4
v -21 -26 -2
v 21 -26 -4
v 21 -26 -2
v -21 -21 -4
v -21 -21 -2
v 21 -21 -4
v 21 -21 -2
v -24 -18 -6
v -24 -18 -4
v -21 -18 -6
v -21 -18 -4
v 21 -18 -6
v 21 -18 -4
v 24 -18 -6
v 24 -18 -4
v -24 -17 -8
v -24 -17 -6
v -21 -17 -8
v -21 -17 -6
v 21 -17 -8
v 21 -17 -6
v 24 -17 -8
v 24 -17 -6
v -24 -16 -11
v -24 -16 -8
v -24 -16 -4
v -24 -16 -2
v -21 -16 -11
v -21 -16 -8
v -21 -16 -4
v -21 -16 -2
v 21 -16 -11
v 21 -16 -8
v 21 -16 -4
v 21 -16 -2
v 24 -16 -11
v 24 -16 -8
v 24 -16 -4
v 24 -16 -2
v -24 -15 -15
v -24 -15 -11
v -21 -15 -15
v -21 -15 -11
v 21 -15 -15
v 21 -15 -11
v 24 -15 -15
v 24 -15 -11
v -40 40 -20
v -40 40 -15
v 40 40 -20
v 40 40 -15
v -40 -40 -20
v 40 -40 -20
v -40 40 -20
v 40 40 -20
v -24 -19 -11
v -21 -19 -11
v 21 -19 -11
v 24 -19 -11
v -24 -18 -11
v -21 -18 -11
v 21 -18 -11
v 24 -18 -11
v -24 -20 -8
v -21 -20 -8
v 21 -20 -8
v 24 -20 -8
v -24 -19 -8
v -21 -19 -8
v 21 -19 -8
v 24 -19 -8
v -24 -21 -6
v -21 -21 -6
v 21 -21 -6
v 24 -21 -6
v -24 -20 -6
v -21 -20 -6
v 21 -20 -6
v 24 -20 -6
v -21 -30 -4
v 21 -30 -4
v -24 -27 -4
v -21 -27 -4
v 21 -27 -4
v 24 -27 -4
v -21 -26 -4
v 21 -26 -4
v -21 -25 -4
v 21 -25 -4
v -24 -21 -4
v -21 -21 -4
v 21 -21 -4
v 24 -21 -4
v -21 -20 -4
v 21 -20 -4
v -24 -18 -4
v -21 -18 -4
v 21 -18 -4
v 24 -18 -4
v -24 -16 -4
v -21 -16 -4
v 21 -16 -4
v 24 -16 -4
v -24 -31 -2
v -21 -31 -2
v 21 -31 -2
v 24 -31 -2
v -24 -30 -2
v -21 -30 -2
v 21 -30 -2
v 24 -30 -2
v -24 -32 0
v -21 -32 0
v 21 -32 0
v 24 -32 0
v -24 -31 0
v -21 -31 0
v 21 -31 0
v 24 -31 0
v -21 -30 0
v 21 -30 0
v -24 -33 2
v -21 -33 2
v 21 -33 2
v 24 -33 2
v -24 -32 2
v -21 -32 2
v 21 -32 2
v 24 -32 2
v -24 -34 4
v -21 -34 4
v 21 -34 4
v 24 -34 4
v -24 -33 4
v -21 -33 4
v 21 -33 4
v 24 -33 4
v -21 -32 4
v 21 -32 4
v -24 -35 6
v -21 -35 6
v 21 -35 6
v 24 -35 6
v -24 -34 6
v -21 -34 6
v 21 -34 6
v 24 -34 6
v -24 -36 8
v -21 -36 8
v 21 -36 8
v 24 -36 8
v -24 -35 8
v -21 -35 8
v 21 -35 8
v 24 -35 8
v -21 -34 8
v 21 -34 8
v -24 -37 10
v -21 -37 10
v 21 -37 10
v 24 -37 10
v -24 -36 10
v -21 -36 10
v 21 -36 10
v 24 -36 10
v -40 -40 -15
v 40 -40 -15
v -24 -30 -15
v -21 -30 -15
v 21 -30 -15
v 24 -30 -15
v -24 -27 -15
v -21 -27 -15
v 21 -27 -15
v 24 -27 -15
v -24 -18 -15
v -21 -18 -15
v 21 -18 -15
v 24 -18 -15
v -24 -15 -15
v -21 -15 -15
v 21 -15 -15
v 24 -15 -15
v -40 40 -15
v 40 40 -15
v -24 -16 -11
v -21 -16 -11
v 21 -16 -11
v 24 -16 -11
v -24 -15 -11
v -21 -15 -11
v 21 -15 -11
v 24 -15 -11
v -24 -17 -8
v -21 -17 -8
v 21 -17 -8
v 24 -17 -8
v -24 -16 -8
v -21 -16 -8
v 21 -16 -8
v 24 -16 -8
v -24 -18 -6
v -21 -18 -6
v 21 -18 -6
v 24 -18 -6
v -24 -17 -6
v -21 -17 -6
v 21 -17 -6
v 24 -17 -6
v -21 -30 -2
v 21 -30 -2
v -24 -28 -2
v -21 -28 -2
v 21 -28 -2
v 24 -28 -2
v -21 -26 -2
v 21 -26 -2
v -21 -25 -2
v 21 -25 -2
v -21 -21 -2
v 21 -21 -2
v -21 -20 -2
v 21 -20 -2
v -24 -16 -2
v -21 -16 -2
v 21 -16 -2
v 24 -16 -2
v -24 -29 0
v -21 -29 0
v 21 -29 0
v 24 -29 0
v -24 -28 0
v -21 -28 0
v 21 -28 0
v 24 -28 0
v -24 -30 2
v -21 -30 2
v 21 -30 2
v 24 -30 2
v -24 -29 2
v -21 -29 2
v 21 -29 2
v 24 -29 2
v -24 -31 4
v -21 -31 4
v 21 -31 4
v 24 -31 4
v -24 -30 4
v -21 -30 4
v 21 -30 4
v 24 -30 4
v -24 -32 6
v -21 -32 6
v 21 -32 6
v 24 -32 6
v -24 -31 6
v -21 -31 6
v 21 -31 6
v 24 -31 6
v -24 -33 8
v -21 -33 8
v 21 -33 8
v 24 -33 8
v -24 -32 8
v -21 -32 8
v 21 -32 8
v 24 -32 8
v -24 -34 10
v -21 -34 10
v 21 -34 10
v 24 -34 10
v -24 -33 10
v -21 -33 10
v 21 -33 10
v 24 -33 10
v -24 -37 12
v -21 -37 12
v 21 -37 12
v 24 -37 12
v -21 -35 12
v 21 -35 12
v -24 -34 12
v -21 -34 12
v 21 -34 12
v 24 -34 12

# faces
f 3/2/1 2/2/1 1/2/1
f 4/2/1 2/2/1 3/2/1
f 10/3/1 8/3/1 7/3/1
f 11/3/1 8/3/1 10/3/1
f 12/3/1 8/3/1 11/3/1
f 14/3/1 10/3/1 9/3/1
f 14/3/1 11/3/1 10/3/1
f 15/3/1 11/3/1 14/3/1
f 16/3/1 11/3/1 15/3/1
f 18/3/1 14/3/1 13/3/1
f 18/3/1 15/3/1 14/3/1
f 19/3/1 15/3/1 18/3/1
f 20/3/1 15/3/1 19/3/1
f 21/3/1 6/3/1 5/3/1
f 22/3/1 18/3/1 17/3/1
f 22/3/1 19/3/1 18/3/1
f 23/3/1 19/3/1 22/3/1
f 26/3/1 23/3/1 22/3/1
f 26/3/1 24/3/1 23/3/1
f 26/3/1 22/3/1 21/3/1
f 26/3/1 21/3/1 5/3/1
f 27/3/1 24/3/1 26/3/1
f 28/3/1 24/3/1 27/3/1
f 30/3/1 26/3/1 25/3/1
f 30/3/1 27/3/1 26/3/1
f 31/3/1 27/3/1 30/3/1
f 32/3/1 27/3/1 31/3/1
f 34/3/1 30/3/1 29/3/1
f 34/3/1 31/3/1 30/3/1
f 35/3/1 31/3/1 34/3/1
f 36/3/1 31/3/1 35/3/1
f 38/3/1 34/3/1 33/3/1
f 38/3/1 35/3/1 34/3/1
f 39/3/1 35/3/1 38/3/1
f 40/3/1 35/3/1 39/3/1
f 42/3/1 38/3/1 37/3/1
f 42/3/1 39/3/1 38/3/1
f 43/3/1 39/3/1 42/3/1
f 44/3/1 39/3/1 43/3/1
f 46/3/1 42/3/1 41/3/1
f 46/3/1 43/3/1 42/3/1
f 47/3/1 43/3/1 46/3/1
f 48/3/1 43/3/1 47/3/1
f 50/3/1 46/3/1 45/3/1
f 50/3/1 47/3/1 46/3/1
f 51/3/1 47/3/1 50/3/1
f 52/3/1 47/3/1 51/3/1
f 53/3/1 50/3/1 49/3/1
f 53/3/1 51/3/1 50/3/1
f 54/3/1 51/3/1 53/3/1
f 60/3/1 58/3/1 57/3/1
f 61/3/1 58/3/1 60/3/1
f 62/3/1 58/3/1 61/3/1
f 64/3/1 60/3/1 59/3/1
f 64/3/1 61/3/1 60/3/1
f 65/3/1 61/3/1 64/3/1
f 66/3/1 61/3/1 65/3/1
f 68/3/1 64/3/1 63/3/1
f 68/3/1 65/3/1 64/3/1
f 69/3/1 65/3/1 68/3/1
f 70/3/1 65/3/1 69/3/1
f 71/3/1 56/3/1 55/3/1
f 72/3/1 56/3/1 71/3/1
f 75/3/1 68/3/1 67/3/1
f 75/3/1 69/3/1 68/3/1
f 76/3/1 69/3/1 75/3/1
f 77/3/1 69/3/1 76/3/1
f 81/3/1 74/3/1 73/3/1
f 82/3/1 74/3/1 81/3/1
f 83/3/1 76/3/1 75/3/1
f 84/3/1 76/3/1 83/3/1
f 86/3/1 80/3/1 79/3/1
f 86/3/1 79/3/1 78/3/1
f 87/3/1 80/3/1 86/3/1
f 88/3/1 80/3/1 87/3/1
f 89/3/1 80/3/1 88/3/1
f 91/3/1 86/3/1 85/3/1
f 92/3/1 88/3/1 87/3/1
f 93/3/1 88/3/1 92/3/1
f 95/3/1 91/3/1 90/3/1
f 96/3/1 86/3/1 91/3/1
f 96/3/1 91/3/1 95/3/1
f 97/3/1 86/3/1 96/3/1
f 99/3/1 95/3/1 94/3/1
f 100/3/1 97/3/1 96/3/1
f 101/3/1 97/3/1 100/3/1
f 103/3/1 99/3/1 98/3/1
f 104/3/1 95/3/1 99/3/1
f 104/3/1 99/3/1 103/3/1
f 105/3/1 95/3/1 104/3/1
f 107/3/1 103/3/1 102/3/1
f 108/3/1 105/3/1 104/3/1
f 109/3/1 105/3/1 108/3/1
f 110/3/1 107/3/1 106/3/1
f 111/3/1 103/3/1 107/3/1
f 111/3/1 107/3/1 110/3/1
f 114/3/2 115/3/2 117/3/2
f 117/3/2 115/3/2 118/3/2
f 118/3/2 115/3/2 119/3/2
f 116/3/2 117/3/2 121/3/2
f 117/3/2 118/3/2 121/3/2
f 121/3/2 118/3/2 122/3/2
f 122/3/2 118/3/2 123/3/2
f 120/3/2 121/3/2 125/3/2
f 121/3/2 122/3/2 125/3/2
f 125/3/2 122/3/2 126/3/2
f 126/3/2 122/3/2 127/3/2
f 112/3/2 113/3/2 128/3/2
f 128/3/2 113/3/2 129/3/2
f 124/3/2 125/3/2 132/3/2
f 125/3/2 126/3/2 132/3/2
f 132/3/2 126/3/2 133/3/2
f 133/3/2 126/3/2 134/3/2
f 130/3/2 131/3/2 138/3/2
f 138/3/2 131/3/2 139/3/2
f 132/3/2 133/3/2 140/3/2
f 140/3/2 133/3/2 141/3/2
f 136/3/2 137/3/2 143/3/2
f 135/3/2 136/3/2 143/3/2
f 143/3/2 137/3/2 144/3/2
f 144/3/2 137/3/2 145/3/2
f 145/3/2 137/3/2 146/3/2
f 142/3/2 143/3/2 148/3/2
f 144/3/2 145/3/2 149/3/2
f 149/3/2 145/3/2 150/3/2
f 147/3/2 148/3/2 152/3/2
f 148/3/2 143/3/2 153/3/2
f 152/3/2 148/3/2 153/3/2
f 153/3/2 143/3/2 154/3/2
f 151/3/2 152/3/2 156/3/2
f 153/3/2 154/3/2 157/3/2
f 157/3/2 154/3/2 158/3/2
f 155/3/2 156/3/2 160/3/2
f 156/3/2 152/3/2 161/3/2
f 160/3/2 156/3/2 161/3/2
f 161/3/2 152/3/2 162/3/2
f 159/3/2 160/3/2 164/3/2
f 161/3/2 162/3/2 165/3/2
f 165/3/2 162/3/2 166/3/2
f 163/3/2 164/3/2 167/3/2
f 164/3/2 160/3/2 168/3/2
f 167/3/2 164/3/2 168/3/2
f 171/3/2 172/3/2 174/3/2
f 174/3/2 172/3/2 175/3/2
f 175/3/2 172/3/2 176/3/2
f 173/3/2 174/3/2 178/3/2
f 174/3/2 175/3/2 178/3/2
f 178/3/2 175/3/2 179/3/2
f 179/3/2 175/3/2 180/3/2
f 177/3/2 178/3/2 182/3/2
f 178/3/2 179/3/2 182/3/2
f 182/3/2 179/3/2 183/3/2
f 183/3/2 179/3/2 184/3/2
f 169/3/2 170/3/2 185/3/2
f 181/3/2 182/3/2 186/3/2
f 182/3/2 183/3/2 186/3/2
f 186/3/2 183/3/2 187/3/2
f 186/3/2 187/3/2 190/3/2
f 187/3/2 188/3/2 190/3/2
f 185/3/2 186/3/2 190/3/2
f 169/3/2 185/3/2 190/3/2
f 190/3/2 188/3/2 191/3/2
f 191/3/2 188/3/2 192/3/2
f 189/3/2 190/3/2 194/3/2
f 190/3/2 191/3/2 194/3/2
f 194/3/2 191/3/2 195/3/2
f 195/3/2 191/3/2 196/3/2
f 193/3/2 194/3/2 198/3/2
f 194/3/2 195/3/2 198/3/2
f 198/3/2 195/3/2 199/3/2
f 199/3/2 195/3/2 200/3/2
f 197/3/2 198/3/2 202/3/2
f 198/3/2 199/3/2 202/3/2
f 202/3/2 199/3/2 203/3/2
f 203/3/2 199/3/2 204/3/2
f 201/3/2 202/3/2 206/3/2
f 202/3/2 203/3/2 206/3/2
f 206/3/2 203/3/2 207/3/2
f 207/3/2 203/3/2 208/3/2
f 205/3/2 206/3/2 210/3/2
f 206/3/2 207/3/2 210/3/2
f 210/3/2 207/3/2 211/3/2
f 211/3/2 207/3/2 212/3/2
f 209/3/2 210/3/2 214/3/2
f 210/3/2 211/3/2 214/3/2
f 214/3/2 211/3/2 215/3/2
f 215/3/2 211/3/2 216/3/2
f 213/3/2 214/3/2 217/3/2
f 214/3/2 215/3/2 217/3/2
f 217/3/2 215/3/2 218/3/2
f 219/2/2 220/2/2 221/2/2
f 221/2/2 220/2/2 222/2/2
f 225/2/3 224/2/3 223/2/3
f 226/2/3 224/2/3 225/2/3
f 229/3/3 228/3/3 227/3/3
f 230/3/3 228/3/3 229/3/3
f 233/3/3 232/3/3 231/3/3
f 234/3/3 232/3/3 233/3/3
f 237/3/3 236/3/3 235/3/3
f 238/3/3 236/3/3 237/3/3
f 241/3/3 240/3/3 239/3/3
f 242/3/3 240/3/3 241/3/3
f 245/3/3 244/3/3 243/3/3
f 246/3/3 244/3/3 245/3/3
f 249/1/3 247/1/3 246/1/3
f 250/1/3 247/1/3 249/1/3
f 251/3/3 249/3/3 248/3/3
f 252/3/3 249/3/3 251/3/3
f 255/3/3 254/3/3 253/3/3
f 256/3/3 254/3/3 255/3/3
f 259/3/3 258/3/3 257/3/3
f 260/3/3 258/3/3 259/3/3
f 263/3/3 262/3/3 261/3/3
f 264/3/3 262/3/3 263/3/3
f 267/1/3 265/1/3 264/1/3
f 268/1/3 265/1/3 267/1/3
f 269/3/3 267/3/3 266/3/3
f 270/3/3 267/3/3 269/3/3
f 273/3/3 272/3/3 271/3/3
f 274/3/3 272/3/3 273/3/3
f 277/3/3 276/3/3 275/3/3
f 278/3/3 276/3/3 277/3/3
f 281/3/3 280/3/3 279/3/3
f 282/3/3 280/3/3 281/3/3
f 285/1/3 283/1/3 282/1/3
f 286/1/3 283/1/3 285/1/3
f 287/3/3 285/3/3 284/3/3
f 288/3/3 285/3/3 287/3/3
f 291/3/3 290/3/3 289/3/3
f 292/3/3 290/3/3 291/3/3
f 293/3/3 290/3/3 292/3/3
f 295/1/3 293/1/3 292/1/3
f 296/1/3 293/1/3 295/1/3
f 297/3/3 295/3/3 294/3/3
f 297/3/3 296/3/3 295/3/3
f 298/3/3 296/3/3 297/3/3
f 301/1/3 300/1/3 299/1/3
f 302/1/3 300/1/3 301/1/3
f 305/3/3 304/3/3 303/3/3
f 306/3/3 304/3/3 305/3/3
f 309/3/3 308/3/3 307/3/3
f 310/3/3 308/3/3 309/3/3
f 313/3/3 312/3/3 311/3/3
f 314/3/3 312/3/3 313/3/3
f 319/1/3 316/1/3 315/1/3
f 320/1/3 316/1/3 319/1/3
f 321/3/3 318/3/3 317/3/3
f 322/3/3 318/3/3 321/3/3
f 325/3/3 324/3/3 323/3/3
f 326/3/3 324/3/3 325/3/3
f 329/3/3 328/3/3 327/3/3
f 330/3/3 328/3/3 329/3/3
f 333/3/3 332/3/3 331/3/3
f 334/3/3 332/3/3 333/3/3
f 337/3/3 336/3/3 335/3/3
f 338/3/3 336/3/3 337/3/3
f 339/3/4 340/3/4 342/3/4
f 342/3/4 340/3/4 343/3/4
f 341/1/4 342/1/4 344/1/4
f 342/1/4 343/1/4 344/1/4
f 344/1/4 343/1/4 345/1/4
f 345/1/4 343/1/4 346/1/4
f 345/3/4 346/3/4 347/3/4
f 347/3/4 346/3/4 348/3/4
f 349/3/4 350/3/4 351/3/4
f 351/3/4 350/3/4 352/3/4
f 353/3/4 354/3/4 355/3/4
f 355/3/4 354/3/4 356/3/4
f 357/3/4 358/3/4 360/3/4
f 360/3/4 358/3/4 361/3/4
f 359/1/4 360/1/4 362/1/4
f 360/1/4 361/1/4 362/1/4
f 362/1/4 361/1/4 363/1/4
f 363/1/4 361/1/4 364/1/4
f 363/3/4 364/3/4 365/3/4
f 365/3/4 364/3/4 366/3/4
f 367/3/4 368/3/4 369/3/4
f 369/3/4 368/3/4 370/3/4
f 371/3/4 372/3/4 373/3/4
f 373/3/4 372/3/4 374/3/4
f 375/3/4 376/3/4 378/3/4
f 378/3/4 376/3/4 379/3/4
f 377/1/4 378/1/4 380/1/4
f 378/1/4 379/1/4 380/1/4
f 380/1/4 379/1/4 381/1/4
f 381/1/4 379/1/4 382/1/4
f 381/3/4 382/3/4 383/3/4
f 383/3/4 382/3/4 384/3/4
f 385/3/4 386/3/4 387/3/4
f 387/3/4 386/3/4 388/3/4
f 389/3/4 390/3/4 391/3/4
f 391/3/4 390/3/4 392/3/4
f 393/3/4 394/3/4 395/3/4
f 395/3/4 394/3/4 396/3/4
f 397/3/4 398/3/4 399/3/4
f 399/3/4 398/3/4 400/3/4
f 401/3/4 402/3/4 403/3/4
f 403/3/4 402/3/4 404/3/4
f 405/3/4 406/3/4 407/3/4
f 407/3/4 406/3/4 408/3/4
f 409/1/4 410/1/4 411/1/4
f 411/1/4 410/1/4 412/1/4
f 413/1/4 414/1/4 415/1/4
f 415/1/4 414/1/4 416/1/4
f 417/3/4 418/3/4 419/3/4
f 419/3/4 418/3/4 420/3/4
f 421/3/4 422/3/4 423/3/4
f 423/3/4 422/3/4 424/3/4
f 425/3/4 426/3/4 427/3/4
f 427/3/4 426/3/4 428/3/4
f 429/3/4 430/3/4 431/3/4
f 431/3/4 430/3/4 432/3/4
f 433/3/4 434/3/4 437/3/4
f 437/3/4 434/3/4 438/3/4
f 435/3/4 436/3/4 439/3/4
f 439/3/4 436/3/4 440/3/4
f 439/1/4 440/1/4 443/1/4
f 443/1/4 440/1/4 444/1/4
f 441/3/4 442/3/4 445/3/4
f 445/3/4 442/3/4 446/3/4
f 443/3/4 444/3/4 447/3/4
f 447/3/4 444/3/4 448/3/4
f 449/3/4 450/3/4 451/3/4
f 451/3/4 450/3/4 452/3/4
f 453/3/4 454/3/4 455/3/4
f 455/3/4 454/3/4 456/3/4
f 457/2/4 458/2/4 459/2/4
f 459/2/4 458/2/4 460/2/4
f 463/2/5 462/2/5 461/2/5
f 464/2/5 462/2/5 463/2/5
f 469/3/5 466/3/5 465/3/5
f 470/3/5 466/3/5 469/3/5
f 471/3/5 468/3/5 467/3/5
f 472/3/5 468/3/5 471/3/5
f 477/3/5 474/3/5 473/3/5
f 478/3/5 474/3/5 477/3/5
f 479/3/5 476/3/5 475/3/5
f 480/3/5 476/3/5 479/3/5
f 485/3/5 482/3/5 481/3/5
f 486/3/5 482/3/5 485/3/5
f 487/3/5 484/3/5 483/3/5
f 488/3/5 484/3/5 487/3/5
f 492/1/5 490/1/5 489/1/5
f 493/1/5 490/1/5 492/1/5
f 495/3/5 492/3/5 491/3/5
f 495/1/5 493/1/5 492/1/5
f 496/3/5 494/3/5 493/3/5
f 496/1/5 493/1/5 495/1/5
f 497/3/5 495/3/5 491/3/5
f 498/3/5 494/3/5 496/3/5
f 499/3/5 497/3/5 491/3/5
f 500/1/5 498/1/5 497/1/5
f 500/3/5 497/3/5 499/3/5
f 501/3/5 494/3/5 498/3/5
f 501/1/5 498/1/5 500/1/5
f 502/3/5 494/3/5 501/3/5
f 506/1/5 504/1/5 503/1/5
f 507/1/5 504/1/5 506/1/5
f 509/3/5 506/3/5 505/3/5
f 510/1/5 507/1/5 506/1/5
f 510/3/5 506/3/5 509/3/5
f 511/3/5 508/3/5 507/3/5
f 511/1/5 507/1/5 510/1/5
f 512/3/5 508/3/5 511/3/5
f 517/3/5 514/3/5 513/3/5
f 518/3/5 514/3/5 517/3/5
f 519/3/5 516/3/5 515/3/5
f 520/3/5 516/3/5 519/3/5
f 525/3/5 522/3/5 521/3/5
f 526/3/5 522/3/5 525/3/5
f 527/3/5 524/3/5 523/3/5
f 528/3/5 524/3/5 527/3/5
f 529/1/5 527/1/5 526/1/5
f 530/1/5 527/1/5 529/1/5
f 535/3/5 532/3/5 531/3/5
f 536/3/5 532/3/5 535/3/5
f 537/3/5 534/3/5 533/3/5
f 538/3/5 534/3/5 537/3/5
f 543/3/5 540/3/5 539/3/5
f 544/3/5 540/3/5 543/3/5
f 545/3/5 542/3/5 541/3/5
f 546/3/5 542/3/5 545/3/5
f 547/1/5 545/1/5 544/1/5
f 548/1/5 545/1/5 547/1/5
f 553/3/5 550/3/5 549/3/5
f 554/3/5 550/3/5 553/3/5
f 555/3/5 552/3/5 551/3/5
f 556/3/5 552/3/5 555/3/5
f 561/3/5 558/3/5 557/3/5
f 562/3/5 558/3/5 561/3/5
f 563/3/5 560/3/5 559/3/5
f 564/3/5 560/3/5 563/3/5
f 565/1/5 563/1/5 562/1/5
f 566/1/5 563/1/5 565/1/5
f 571/3/5 568/3/5 567/3/5
f 572/3/5 568/3/5 571/3/5
f 573/3/5 570/3/5 569/3/5
f 574/3/5 570/3/5 573/3/5
f 575/2/6 576/2/6 577/2/6
f 577/2/6 576/2/6 578/2/6
f 578/2/6 576/2/6 579/2/6
f 579/2/6 576/2/6 580/2/6
f 575/2/6 577/2/6 581/2/6
f 578/2/6 579/2/6 582/2/6
f 582/2/6 579/2/6 583/2/6
f 580/2/6 576/2/6 584/2/6
f 582/2/6 583/2/6 585/2/6
f 583/2/6 584/2/6 585/2/6
f 575/2/6 581/2/6 585/2/6
f 581/2/6 582/2/6 585/2/6
f 585/2/6 584/2/6 586/2/6
f 586/2/6 584/2/6 587/2/6
f 584/2/6 576/2/6 588/2/6
f 587/2/6 584/2/6 588/2/6
f 575/2/6 585/2/6 589/2/6
f 586/2/6 587/2/6 590/2/6
f 590/2/6 587/2/6 591/2/6
f 588/2/6 576/2/6 592/2/6
f 575/2/6 589/2/6 593/2/6
f 591/2/6 592/2/6 593/2/6
f 590/2/6 591/2/6 593/2/6
f 589/2/6 590/2/6 593/2/6
f 592/2/6 576/2/6 594/2/6
f 593/2/6 592/2/6 594/2/6
f 595/3/6 596/3/6 599/3/6
f 599/3/6 596/3/6 600/3/6
f 597/3/6 598/3/6 601/3/6
f 601/3/6 598/3/6 602/3/6
f 603/3/6 604/3/6 607/3/6
f 607/3/6 604/3/6 608/3/6
f 605/3/6 606/3/6 609/3/6
f 609/3/6 606/3/6 610/3/6
f 611/3/6 612/3/6 615/3/6
f 615/3/6 612/3/6 616/3/6
f 613/3/6 614/3/6 617/3/6
f 617/3/6 614/3/6 618/3/6
f 619/1/6 620/1/6 622/1/6
f 622/1/6 620/1/6 623/1/6
f 621/3/6 622/3/6 625/3/6
f 622/1/6 623/1/6 625/1/6
f 623/3/6 624/3/6 626/3/6
f 625/1/6 623/1/6 626/1/6
f 621/3/6 625/3/6 627/3/6
f 626/3/6 624/3/6 628/3/6
f 621/3/6 627/3/6 629/3/6
f 627/1/6 628/1/6 629/1/6
f 628/3/6 624/3/6 630/3/6
f 629/1/6 628/1/6 630/1/6
f 621/3/6 629/3/6 631/3/6
f 630/3/6 624/3/6 632/3/6
f 621/3/6 631/3/6 633/3/6
f 631/1/6 632/1/6 634/1/6
f 633/3/6 631/3/6 634/3/6
f 632/3/6 624/3/6 635/3/6
f 634/1/6 632/1/6 635/1/6
f 635/3/6 624/3/6 636/3/6
f 637/3/6 638/3/6 641/3/6
f 641/3/6 638/3/6 642/3/6
f 639/3/6 640/3/6 643/3/6
f 643/3/6 640/3/6 644/3/6
f 645/3/6 646/3/6 649/3/6
f 649/3/6 646/3/6 650/3/6
f 647/3/6 648/3/6 651/3/6
f 651/3/6 648/3/6 652/3/6
f 653/3/6 654/3/6 657/3/6
f 654/1/6 655/1/6 658/1/6
f 657/3/6 654/3/6 658/3/6
f 655/3/6 656/3/6 659/3/6
f 658/1/6 655/1/6 659/1/6
f 659/3/6 656/3/6 660/3/6
f 661/3/6 662/3/6 665/3/6
f 665/3/6 662/3/6 666/3/6
f 663/3/6 664/3/6 667/3/6
f 667/3/6 664/3/6 668/3/6
f 669/3/6 670/3/6 673/3/6
f 670/1/6 671/1/6 674/1/6
f 673/3/6 670/3/6 674/3/6
f 671/3/6 672/3/6 675/3/6
f 674/1/6 671/1/6 675/1/6
f 675/3/6 672/3/6 676/3/6
f 677/3/6 678/3/6 681/3/6
f 681/3/6 678/3/6 682/3/6
f 679/3/6 680/3/6 683/3/6
f 683/3/6 680/3/6 684/3/6
f 685/3/6 686/3/6 689/3/6
f 687/3/6 688/3/6 690/3/6
f 685/3/6 689/3/6 691/3/6
f 689/1/6 690/1/6 692/1/6
f 691/3/6 689/3/6 692/3/6
f 690/3/6 688/3/6 693/3/6
f 692/1/6 690/1/6 693/1/6
f 693/3/6 688/3/6 694/3/6
